<svg width="80" height="80" viewBox="0 0 80 80" fill="none" xmlns="http://www.w3.org/2000/svg">
<path fill-rule="evenodd" clip-rule="evenodd" d="M40 0C17.9086 0 0 17.9086 0 40C0 62.0914 17.9086 80 40 80C62.0914 80 80 62.0914 80 40C80 17.9086 62.0914 0 40 0ZM18.0202 59.9143C16.8034 59.3883 16.1606 58.4086 16.1606 57.0799C16.1606 56.1592 17.9847 52.9165 27.6501 36.6549C35.9502 22.6903 39.3694 17.1841 39.9677 16.8191C41.2052 16.0641 42.5277 16.1703 43.5541 17.1072C44.6464 18.1042 63.6823 55.9172 63.6807 57.0866C63.6785 58.3816 62.6812 59.6787 61.3919 60.0625C60.4008 60.3574 60.0838 60.3293 59.1185 59.861C58.0389 59.3374 57.6896 58.7152 49.8338 43.3264C43.6292 31.172 41.5915 27.4204 41.34 27.6878C40.9387 28.1146 25.1829 52.7951 24.9846 53.3076C24.875 53.5906 26.2842 53.6696 31.4447 53.6696C38.7746 53.6696 39.6893 53.8417 40.4849 55.37C41.4002 57.1281 40.8022 59.0491 39.0883 59.857C38.2203 60.2662 36.7828 60.3289 28.5071 60.3192C21.0985 60.3104 18.7242 60.2188 18.0202 59.9143Z" fill="white"/>
</svg>
