<svg width="91" height="81" viewBox="0 0 91 81" fill="none" xmlns="http://www.w3.org/2000/svg">
<path d="M55.6804 75.8467C54.4432 75.8476 53.2073 75.7649 51.9808 75.5992C48.93 75.2011 45.9857 74.1924 43.3163 72.6309C40.6469 71.0695 38.3046 68.9857 36.4231 66.4987C34.5416 64.0117 33.1578 61.1702 32.3507 58.1365C31.5437 55.1027 31.3292 51.9362 31.7196 48.8177C32.3726 43.6675 34.9969 38.9923 39.017 35.817C43.0372 32.6417 48.125 31.2257 53.165 31.8793C57.3093 32.4257 61.0721 34.6306 63.6278 38.01C66.1834 41.3893 67.323 45.6672 66.7964 49.9045C66.5798 51.6413 66.0304 53.3174 65.1798 54.837C64.3291 56.3567 63.1938 57.6901 61.8387 58.761C60.4836 59.8318 58.9354 60.6192 57.2825 61.0781C55.6295 61.537 53.9044 61.6584 52.2055 61.4353C50.7903 61.251 49.4245 60.7833 48.1861 60.0591C46.9478 59.3348 45.8613 58.3682 44.9887 57.2144C44.1161 56.0606 43.4745 54.7423 43.1006 53.3349C42.7267 51.9275 42.6278 50.4586 42.8096 49.0121C42.9611 47.7969 43.3455 46.6243 43.9407 45.5611C44.5358 44.4978 45.3301 43.565 46.2782 42.8158C47.2263 42.0665 48.3095 41.5157 49.466 41.1947C50.6225 40.8737 51.8295 40.7888 53.018 40.945C55.0458 41.2226 56.8849 42.3056 58.1371 43.9594C59.3893 45.6132 59.9539 47.7046 59.7084 49.7808C59.6727 50.0709 59.5814 50.3509 59.4397 50.605C59.2981 50.859 59.1089 51.082 58.8829 51.2613C58.657 51.4406 58.3987 51.5726 58.1228 51.6498C57.847 51.7271 57.559 51.748 57.2752 51.7115C56.9914 51.6749 56.7174 51.5816 56.4689 51.4368C56.2204 51.292 56.0023 51.0986 55.8269 50.8676C55.6515 50.6367 55.5223 50.3727 55.4467 50.0907C55.3712 49.8087 55.3507 49.5142 55.3865 49.2242C55.49 48.3075 55.2386 47.3859 54.6862 46.6562C54.1339 45.9264 53.3242 45.4464 52.4303 45.3187C51.1677 45.1584 49.8945 45.5155 48.8887 46.3118C47.8829 47.1082 47.2263 48.2791 47.0624 49.5687C46.9533 50.4402 47.0133 51.3251 47.2388 52.1728C47.4643 53.0206 47.8509 53.8146 48.3767 54.5096C48.9025 55.2046 49.557 55.7869 50.3029 56.2233C51.0489 56.6596 51.8716 56.9415 52.7242 57.0527C53.8595 57.2026 55.0126 57.1221 56.1175 56.8159C57.2223 56.5096 58.2572 55.9836 59.1629 55.2679C60.0686 54.5522 60.8273 53.6609 61.3955 52.645C61.9638 51.6292 62.3304 50.5087 62.4744 49.3478C62.8565 46.2715 62.029 43.1658 60.1734 40.7125C58.3179 38.2591 55.586 36.6585 52.5772 36.2619C48.674 35.7561 44.7338 36.8535 41.6209 39.3133C38.5081 41.7731 36.4767 45.3945 35.9723 49.3832C35.3332 54.5171 36.714 59.7005 39.8113 63.7943C42.9086 67.8882 47.4691 70.5578 52.4908 71.2166C55.6729 71.6368 58.9048 71.4115 62.0017 70.5538C65.0986 69.696 67.9996 68.2225 70.539 66.2177C73.0783 64.2128 75.206 61.7159 76.8005 58.8697C78.395 56.0236 79.4249 52.884 79.8313 49.6306C80.349 45.4963 80.065 41.2982 78.9955 37.2761C77.926 33.254 76.092 29.4866 73.5981 26.1891C71.1042 22.8915 67.9994 20.1284 64.4608 18.0574C60.9223 15.9865 57.0193 14.6483 52.9748 14.1192C42.8615 12.8027 33.8027 15.7627 26.7926 22.6812C20.1627 29.2197 15.7457 39.001 14.3454 50.2049C14.3096 50.495 14.2183 50.7751 14.0767 51.0291C13.935 51.2831 13.7459 51.5061 13.5199 51.6854C13.294 51.8647 13.0357 51.9967 12.7598 52.074C12.484 52.1512 12.1959 52.1721 11.9121 52.1356C11.6283 52.099 11.3544 52.0057 11.1059 51.8609C10.8574 51.7161 10.6392 51.5227 10.4639 51.2918C10.2885 51.0608 10.1593 50.7968 10.0837 50.5148C10.0082 50.2328 9.98768 49.9384 10.0234 49.6483C11.5448 37.4459 16.4285 26.7369 23.7499 19.5091C31.7455 11.6187 42.0231 8.24337 53.4848 9.73664C62.7891 10.955 71.2393 15.9006 76.9773 23.486C82.7154 31.0714 85.2717 40.6757 84.0841 50.1873C83.1909 57.2577 79.8138 63.7552 74.5819 68.4694C69.35 73.1835 62.6201 75.7928 55.6458 75.8113L55.6804 75.8467Z" fill="white" fill-opacity="0.54"/>
<path d="M1.73437 50.8941H1.50962C1.28423 50.8646 1.06673 50.7901 0.869557 50.6746C0.672389 50.5592 0.499433 50.4052 0.360548 50.2213C0.221662 50.0375 0.119568 49.8275 0.0601438 49.6033C0.000719717 49.3791 -0.0148547 49.1452 0.0142443 48.9148C0.143902 47.8722 0.299465 46.8119 0.472342 45.7869C0.501854 45.5506 0.577787 45.3228 0.695614 45.1173C0.813441 44.9117 0.970729 44.7327 1.15799 44.5908C1.34524 44.449 1.5586 44.3473 1.78528 44.292C2.01195 44.2366 2.24728 44.2286 2.47704 44.2685C2.7068 44.3085 2.92625 44.3955 3.12227 44.5243C3.3183 44.6532 3.48685 44.8213 3.61772 45.0184C3.74859 45.2155 3.8391 45.4377 3.88383 45.6715C3.92857 45.9053 3.92659 46.1459 3.87803 46.3789C3.7138 47.3597 3.56685 48.367 3.44584 49.3655C3.38943 49.7887 3.18499 50.1766 2.87035 50.4577C2.55571 50.7387 2.15219 50.8937 1.73437 50.8941Z" fill="white"/>
<path d="M4.87175 36.9334C4.68022 36.9365 4.48976 36.9035 4.30987 36.8362C4.09465 36.7616 3.89593 36.6443 3.7251 36.491C3.55428 36.3378 3.41469 36.1516 3.31433 35.9431C3.21397 35.7347 3.15486 35.508 3.14028 35.2762C3.1257 35.0443 3.15597 34.8118 3.22939 34.5919C3.32447 34.3092 3.41958 34.0353 3.5233 33.7084C3.59137 33.4792 3.70428 33.2666 3.8552 33.0834C4.00613 32.9002 4.1919 32.7502 4.40125 32.6427C4.6106 32.5352 4.83915 32.4723 5.07302 32.4578C5.30688 32.4433 5.54116 32.4776 5.76167 32.5585C5.98218 32.6394 6.18433 32.7653 6.35578 32.9286C6.52722 33.0918 6.66444 33.289 6.75906 33.5081C6.85368 33.7272 6.90373 33.9636 6.9062 34.2031C6.90867 34.4426 6.86344 34.6801 6.77335 34.9012L6.5054 35.6964C6.39584 36.0526 6.17878 36.3641 5.88528 36.5864C5.59178 36.8086 5.23698 36.9301 4.87175 36.9334V36.9334ZM7.40439 30.5186C7.15039 30.5185 6.8995 30.4612 6.66963 30.3507C6.46118 30.2553 6.2733 30.1186 6.11683 29.9485C5.96037 29.7784 5.83845 29.5783 5.75808 29.3598C5.67771 29.1412 5.64051 28.9086 5.64861 28.6752C5.65671 28.4419 5.70992 28.2125 5.80525 28.0004C7.41385 24.4924 9.36887 21.1617 11.6399 18.06C11.7697 17.8583 11.9386 17.6859 12.1361 17.5534C12.3336 17.421 12.5556 17.3313 12.7883 17.29C13.0211 17.2487 13.2596 17.2565 13.4893 17.3131C13.7189 17.3697 13.9348 17.4738 14.1236 17.6189C14.3124 17.7641 14.47 17.9473 14.5869 18.1572C14.7037 18.367 14.7772 18.5992 14.8028 18.8392C14.8285 19.0793 14.8057 19.3222 14.736 19.5529C14.6662 19.7836 14.5509 19.9972 14.3973 20.1806C12.2732 23.0915 10.4429 26.2147 8.93432 29.5025C8.79736 29.8008 8.58156 30.0541 8.3112 30.2337C8.04084 30.4132 7.72674 30.5119 7.40439 30.5186Z" fill="white"/>
<path d="M52.2057 80.0083H52.0155L51.1511 79.9111C50.6926 79.8537 50.2752 79.6124 49.9907 79.2404C49.7062 78.8684 49.578 78.3961 49.6341 77.9274C49.6903 77.4587 49.9263 77.0321 50.2902 76.7413C50.6541 76.4504 51.1162 76.3193 51.5747 76.3767L52.3699 76.4651C52.8284 76.4873 53.2595 76.6949 53.5683 77.042C53.8771 77.3892 54.0384 77.8475 54.0166 78.3162C53.9948 78.7849 53.7918 79.2255 53.4522 79.5412C53.1126 79.8569 52.6642 80.0217 52.2057 79.9994V80.0083ZM63.1229 79.2219C62.7022 79.2184 62.2972 79.0584 61.9838 78.7716C61.6703 78.4848 61.4699 78.0911 61.4201 77.6641C61.3703 77.2371 61.4745 76.8062 61.7131 76.4521C61.9518 76.098 62.3086 75.845 62.7166 75.7405C64.5363 75.2889 66.3126 74.6708 68.024 73.8938C68.1445 73.8327 68.2724 73.7881 68.4043 73.7613C68.512 73.6785 68.6279 73.6074 68.75 73.5493C71.8919 72.0145 74.7609 69.9539 77.2383 67.4525C77.5677 67.1485 77.9989 66.9856 78.4425 66.9976C78.8861 67.0095 79.3082 67.1954 79.6215 67.5167C79.9347 67.8381 80.1151 68.2703 80.1252 68.7238C80.1353 69.1773 79.9745 69.6174 79.6759 69.9531C76.9236 72.7309 73.7362 75.0186 70.2455 76.7213C70.1098 76.7843 69.9677 76.8317 69.8219 76.8627C69.7057 76.9587 69.5779 77.0389 69.4415 77.1013C67.5405 77.9659 65.5677 78.655 63.5465 79.16C63.4083 79.1985 63.266 79.2193 63.1229 79.2219V79.2219ZM45.6104 78.515C45.4101 78.5134 45.2114 78.4776 45.0226 78.409C41.3307 77.0506 37.9631 74.9062 35.1427 72.1178C35.0313 72.0115 34.9353 71.8895 34.8575 71.7556C34.7279 71.6738 34.6089 71.5758 34.503 71.464C33.0341 69.9227 31.7382 68.2186 30.6392 66.3833C30.4008 65.9826 30.3279 65.5015 30.4365 65.0458C30.5451 64.5901 30.8263 64.1972 31.2184 63.9535C31.6104 63.7098 32.081 63.6352 32.5268 63.7463C32.9726 63.8573 33.357 64.1448 33.5954 64.5455C34.5582 66.1577 35.6947 67.6544 36.9838 69.0076C37.1193 69.2402 37.3094 69.4346 37.537 69.5731C40.0039 72.0158 42.9502 73.8952 46.1809 75.0867C46.5629 75.2284 46.8839 75.5032 47.0874 75.8628C47.2909 76.2223 47.3641 76.6437 47.2939 77.0529C47.2238 77.4621 47.0148 77.8329 46.7038 78.1003C46.3928 78.3677 45.9995 78.5145 45.5931 78.515H45.6104ZM82.2691 65.862C81.9156 65.8586 81.5717 65.7445 81.2837 65.5351C80.9096 65.2662 80.655 64.8567 80.5756 64.3964C80.4962 63.936 80.5985 63.4622 80.8601 63.0787L81.3096 62.3984C81.5629 62.007 81.9579 61.7346 82.4078 61.6409C82.8576 61.5473 83.3254 61.6402 83.7083 61.8992C84.0911 62.1581 84.3577 62.5619 84.4492 63.0217C84.5408 63.4816 84.45 63.9598 84.1966 64.3511C84.0324 64.6073 83.8596 64.8548 83.6867 65.1022C83.5278 65.3363 83.3159 65.5276 83.0691 65.6599C82.8223 65.7922 82.5478 65.8616 82.2691 65.862V65.862ZM53.2257 62.5044C52.5754 62.5072 51.9257 62.4659 51.2808 62.3807C50.6524 62.3048 50.031 62.1777 49.4224 62.0008C49.2633 61.9568 49.1117 61.8883 48.9729 61.7975C48.807 61.7887 48.6436 61.7529 48.4888 61.6915C46.33 60.8669 44.4384 59.4442 43.0259 57.5828C42.8753 57.4013 42.7621 57.1905 42.6932 56.9631C42.6242 56.7357 42.601 56.4964 42.6248 56.2596C42.6485 56.0228 42.7188 55.7933 42.8315 55.585C42.9442 55.3766 43.0969 55.1937 43.2804 55.0472C43.464 54.9007 43.6746 54.7936 43.8996 54.7323C44.1247 54.671 44.3595 54.6569 44.59 54.6907C44.8205 54.7245 45.042 54.8056 45.2411 54.9291C45.4402 55.0525 45.6129 55.2158 45.7487 55.4092C46.7713 56.7572 48.1427 57.7856 49.7076 58.3781C49.8183 58.4221 49.9252 58.4753 50.0274 58.5371C50.1476 58.5487 50.2662 58.5724 50.3818 58.6078C50.8205 58.7355 51.2686 58.8271 51.7216 58.8817C54.4373 59.2433 57.1909 58.6178 59.5011 57.1145C59.8874 56.8614 60.3562 56.7756 60.8044 56.8758C61.2526 56.9761 61.6435 57.2542 61.8911 57.6491C62.1387 58.044 62.2227 58.5232 62.1246 58.9814C62.0266 59.4395 61.7545 59.8391 61.3682 60.0922C58.934 61.6723 56.1092 62.5092 53.2257 62.5044ZM28.4955 56.6992C28.0721 56.7026 27.6623 56.5471 27.3436 56.2621C27.025 55.977 26.8197 55.5824 26.7667 55.153C26.7667 54.8525 26.6976 54.5433 26.663 54.2694C26.6206 53.8007 26.7621 53.334 27.0563 52.9719C27.3506 52.6099 27.7734 52.3821 28.2319 52.3387C28.6904 52.2954 29.1469 52.44 29.5011 52.7407C29.8553 53.0415 30.0782 53.4738 30.1206 53.9424C30.1206 54.2075 30.1811 54.4726 30.2157 54.7377C30.2448 54.968 30.2292 55.202 30.1697 55.4262C30.1103 55.6503 30.0082 55.8604 29.8693 56.0442C29.7305 56.228 29.5575 56.382 29.3603 56.4975C29.1632 56.6129 28.9457 56.6875 28.7203 56.7169L28.4955 56.6992ZM64.5923 56.0719C64.2678 56.0703 63.9503 55.9754 63.6761 55.798C63.4835 55.6746 63.3167 55.5135 63.1851 55.3241C63.0535 55.1347 62.9597 54.9206 62.9091 54.6941C62.8585 54.4676 62.8521 54.2331 62.8903 54.004C62.9285 53.775 63.0104 53.5559 63.1315 53.3593C63.2612 53.1472 63.3822 52.9351 63.5032 52.7142C63.6116 52.51 63.7583 52.3296 63.9349 52.1834C64.1115 52.0371 64.3146 51.9278 64.5325 51.8618C64.7504 51.7957 64.979 51.7742 65.205 51.7984C65.4311 51.8227 65.6503 51.8922 65.85 52.003C66.0498 52.1138 66.2263 52.2637 66.3694 52.4443C66.5125 52.6248 66.6194 52.8324 66.684 53.0551C66.7486 53.2779 66.7697 53.5115 66.746 53.7426C66.7223 53.9736 66.6543 54.1977 66.5459 54.4019C66.3903 54.6847 66.226 54.9674 66.0618 55.2855C65.901 55.532 65.6822 55.7332 65.4254 55.8706C65.1686 56.008 64.8821 56.0772 64.5923 56.0719ZM87.1874 54.9321C87.0447 54.9319 86.9025 54.9141 86.7639 54.879C86.5436 54.8223 86.3364 54.7217 86.1542 54.5831C85.972 54.4444 85.8183 54.2704 85.7019 54.071C85.5855 53.8716 85.5087 53.6507 85.4759 53.4209C85.443 53.1912 85.4548 52.957 85.5105 52.7319C85.8243 51.4724 86.0639 50.1948 86.228 48.906C86.3029 48.3169 86.3634 47.6984 86.4095 47.0505C86.425 46.9124 86.4539 46.7762 86.4959 46.644C86.4785 46.5062 86.4785 46.3666 86.4959 46.2287C86.5478 45.407 86.5737 44.5764 86.5737 43.7547C86.5636 40.9866 86.274 38.2269 85.7093 35.5196C85.6524 35.2892 85.6416 35.0493 85.6776 34.8145C85.7135 34.5796 85.7954 34.3546 85.9184 34.1528C86.0414 33.9511 86.2029 33.7768 86.3933 33.6403C86.5837 33.5039 86.7992 33.4081 87.0266 33.3588C87.2541 33.3094 87.489 33.3075 87.7172 33.3531C87.9454 33.3987 88.1623 33.4908 88.3549 33.6241C88.5474 33.7574 88.7117 33.929 88.8379 34.1287C88.964 34.3284 89.0495 34.552 89.0891 34.7863C89.7093 37.7252 90.0308 40.7217 90.0486 43.7282C90.0486 44.6118 90.0486 45.4954 89.9621 46.3789C89.9546 46.5319 89.9284 46.6832 89.8843 46.8296C89.9062 46.9789 89.9062 47.1308 89.8843 47.2802C89.8325 47.9517 89.7633 48.6232 89.6769 49.2948C89.4981 50.7263 89.2354 52.1455 88.8903 53.5448C88.805 53.9406 88.5894 54.2944 88.2794 54.5469C87.9694 54.7995 87.5838 54.9355 87.1874 54.9321V54.9321ZM28.5128 49.8249H28.2881C28.0627 49.7955 27.8452 49.7209 27.648 49.6055C27.4509 49.4901 27.2779 49.336 27.139 49.1522C27.0001 48.9684 26.8981 48.7583 26.8387 48.5342C26.7792 48.31 26.7636 48.0761 26.7927 47.8457C27.3093 43.7984 28.8595 39.9616 31.2875 36.7213C31.3838 36.5993 31.4941 36.4895 31.616 36.3944C31.6797 36.2471 31.7642 36.1102 31.8667 35.9879C33.2368 34.3099 34.8314 32.8375 36.6035 31.6142C36.7909 31.4728 37.0044 31.3717 37.231 31.3168C37.4577 31.2619 37.6929 31.2544 37.9224 31.2947C38.152 31.335 38.3712 31.4224 38.5669 31.5515C38.7626 31.6805 38.9308 31.8488 39.0614 32.0459C39.1919 32.2431 39.2822 32.4653 39.3266 32.699C39.3711 32.9327 39.3689 33.1732 39.3202 33.406C39.2715 33.6389 39.1772 33.8592 39.0431 34.0539C38.909 34.2486 38.7377 34.4135 38.5397 34.5389C37.0342 35.5779 35.6809 36.8303 34.5203 38.2588C34.4338 38.359 34.3383 38.4507 34.2351 38.5327C34.1785 38.6531 34.112 38.7684 34.0363 38.8773C31.9755 41.6219 30.6605 44.8742 30.2243 48.3052C30.1603 48.7219 29.9527 49.1015 29.6388 49.3754C29.3249 49.6492 28.9255 49.7993 28.5128 49.7984V49.8249ZM42.8616 47.6601C42.6206 47.6605 42.3821 47.6094 42.1615 47.5099C41.7448 47.3171 41.42 46.9633 41.2579 46.5261C41.0959 46.0889 41.11 45.6039 41.2971 45.1772C41.4324 44.8593 41.5854 44.5496 41.7552 44.2495C41.8688 44.0482 42.02 43.8717 42.2002 43.7301C42.3804 43.5885 42.5862 43.4846 42.8057 43.4243C43.0252 43.364 43.2542 43.3484 43.4796 43.3786C43.705 43.4088 43.9224 43.484 44.1193 43.6C44.3163 43.7161 44.4889 43.8706 44.6274 44.0549C44.766 44.2391 44.8676 44.4495 44.9266 44.6739C44.9856 44.8983 45.0008 45.1323 44.9713 45.3627C44.9418 45.5931 44.8682 45.8153 44.7546 46.0167C44.6509 46.2111 44.5472 46.4231 44.4521 46.6352C44.3083 46.9397 44.082 47.1957 43.8 47.3727C43.5181 47.5496 43.1924 47.6402 42.8616 47.6336V47.6601ZM57.1154 46.3524C56.7947 46.3531 56.4801 46.2625 56.2069 46.0909C55.9336 45.9192 55.7125 45.6733 55.5681 45.3805C55.1878 44.6052 54.6271 43.9372 53.9354 43.435C53.2437 42.9328 52.442 42.6117 51.6006 42.5C50.4755 42.3504 49.3317 42.4901 48.2727 42.9065C48.0604 42.99 47.8342 43.03 47.6068 43.0241C47.3794 43.0183 47.1554 42.9667 46.9475 42.8723C46.7396 42.778 46.5519 42.6427 46.3952 42.4742C46.2384 42.3057 46.1157 42.1073 46.034 41.8903C45.9522 41.6733 45.9131 41.442 45.9189 41.2096C45.9246 40.9771 45.975 40.7481 46.0673 40.5356C46.1596 40.3231 46.292 40.1313 46.4568 39.971C46.6217 39.8108 46.8157 39.6854 47.028 39.6018C48.2065 39.1416 49.4573 38.9051 50.7189 38.9038C51.1611 38.9066 51.6027 38.9361 52.0415 38.9921C53.4459 39.1776 54.7841 39.713 55.9387 40.5512C57.0932 41.3893 58.0286 42.5045 58.6627 43.7989C58.8665 44.2184 58.899 44.7034 58.7531 45.1475C58.6073 45.5915 58.2949 45.9581 57.8847 46.1669C57.6445 46.2823 57.3806 46.3369 57.1154 46.3259V46.3524ZM66.2347 44.4174C65.8374 44.4282 65.4487 44.2988 65.1338 44.051C64.8189 43.8032 64.5972 43.452 64.5059 43.0566C64.1007 41.2882 63.3926 39.607 62.4141 38.0909C62.3369 37.9861 62.2757 37.8699 62.2326 37.7463C62.1352 37.6598 62.0482 37.562 61.9733 37.4547C60.0037 34.7265 57.2132 32.7338 54.0296 31.7821C53.6048 31.6388 53.2508 31.3328 53.0421 30.9283C52.8335 30.5238 52.7863 30.0524 52.9105 29.6132C53.0347 29.1739 53.3207 28.8009 53.7083 28.5727C54.0959 28.3444 54.5549 28.2786 54.989 28.3891C58.9068 29.5556 62.3415 32.0049 64.7652 35.3606C64.8569 35.492 64.9323 35.6345 64.99 35.7847C65.1064 35.891 65.2081 36.0128 65.2925 36.147C66.5023 38.0067 67.3803 40.0709 67.8857 42.2438C67.9383 42.47 67.9467 42.7047 67.9104 42.9343C67.8742 43.1639 67.7939 43.384 67.6742 43.5818C67.5545 43.7797 67.3979 43.9514 67.2131 44.0872C67.0284 44.223 66.8193 44.3202 66.5977 44.3732C66.4774 44.3895 66.356 44.3955 66.2347 44.3909V44.4174ZM47.8492 31.1636C47.6221 31.1717 47.3958 31.134 47.183 31.0527C46.9702 30.9714 46.7752 30.8481 46.609 30.6897C46.4429 30.5314 46.3088 30.3411 46.2146 30.1298C46.1204 29.9185 46.0678 29.6903 46.0599 29.4582C46.0519 29.2262 46.0888 28.9948 46.1683 28.7773C46.2479 28.5597 46.3685 28.3604 46.5235 28.1905C46.6784 28.0207 46.8645 27.8837 47.0712 27.7874C47.2779 27.6911 47.5011 27.6373 47.7281 27.6292L48.6444 27.585C48.8714 27.5781 49.0976 27.6169 49.3099 27.6993C49.5223 27.7816 49.7167 27.906 49.882 28.0651C50.0474 28.2243 50.1804 28.4152 50.2736 28.6269C50.3668 28.8387 50.4182 29.0671 50.425 29.2992C50.4318 29.5313 50.3939 29.7624 50.3133 29.9795C50.2327 30.1966 50.1111 30.3953 49.9554 30.5643C49.7997 30.7333 49.6129 30.8693 49.4057 30.9646C49.1986 31.0598 48.9751 31.1124 48.7481 31.1194H47.9702L47.8492 31.1636ZM85.7266 31.0752C85.3738 31.0739 85.0299 30.9623 84.7409 30.7554C84.452 30.5485 84.2319 30.2562 84.1102 29.9177C84.0151 29.6615 83.92 29.4052 83.8163 29.149C83.6478 28.7119 83.6561 28.2244 83.8393 27.7935C84.0224 27.3627 84.3655 27.0239 84.7931 26.8517C85.2206 26.6794 85.6976 26.6878 86.1191 26.8751C86.5406 27.0623 86.872 27.4131 87.0405 27.8501L87.3517 28.7337C87.5109 29.1731 87.4929 29.6592 87.3017 30.085C87.1104 30.5108 86.7615 30.8416 86.3317 31.0045C86.1352 31.0619 85.9307 31.0858 85.7266 31.0752V31.0752ZM80.0994 20.4722C79.8311 20.4722 79.5664 20.4083 79.3263 20.2856C79.0863 20.1629 78.8775 19.9848 78.7164 19.7653C77.585 18.2041 76.3458 16.7277 75.0082 15.3474C74.9073 15.248 74.8201 15.135 74.7489 15.0116C74.6313 14.945 74.5237 14.8617 74.4291 14.7642C71.8936 12.2704 69.0415 10.1365 65.9494 8.42001C65.7497 8.3092 65.5732 8.15926 65.4301 7.97873C65.287 7.7982 65.1801 7.59063 65.1155 7.36787C65.0509 7.1451 65.0298 6.9115 65.0535 6.68042C65.0772 6.44934 65.1452 6.22529 65.2536 6.02107C65.362 5.81685 65.5087 5.63646 65.6853 5.49019C65.8619 5.34392 66.065 5.23465 66.2829 5.1686C66.5008 5.10256 66.7293 5.08104 66.9554 5.10526C67.1814 5.12949 67.4007 5.19898 67.6004 5.30979C70.9614 7.1805 74.063 9.50125 76.8234 12.2106C76.9302 12.3189 77.0232 12.4407 77.1 12.5729C77.2292 12.6482 77.3483 12.7403 77.4544 12.8468C78.9065 14.3372 80.2526 15.9317 81.4825 17.6182C81.6187 17.8038 81.7178 18.0151 81.7741 18.2399C81.8305 18.4647 81.843 18.6986 81.8109 18.9284C81.7788 19.1581 81.7027 19.3791 81.587 19.5788C81.4713 19.7785 81.3183 19.953 81.1367 20.0922C80.8502 20.324 80.4992 20.457 80.1341 20.4722H80.0994ZM13.5416 20.1982C13.1567 20.199 12.7826 20.0684 12.4785 19.8271C12.2995 19.6839 12.15 19.5061 12.0383 19.3038C11.9267 19.1014 11.8552 18.8786 11.8279 18.648C11.8007 18.4174 11.8181 18.1835 11.8793 17.9598C11.9405 17.7361 12.0442 17.5269 12.1845 17.3442C13.4409 15.6919 14.8008 14.1246 16.2558 12.6524C16.417 12.4888 16.6082 12.3592 16.8183 12.2711C17.0285 12.183 17.2536 12.1381 17.4807 12.1389C17.7079 12.1398 17.9326 12.1863 18.1422 12.2759C18.3517 12.3655 18.542 12.4965 18.7021 12.6612C18.8621 12.826 18.9888 13.0214 19.075 13.2362C19.1612 13.4511 19.2052 13.6811 19.2044 13.9133C19.2036 14.1455 19.158 14.3753 19.0704 14.5895C18.9827 14.8037 18.8546 14.9982 18.6934 15.1618C17.3423 16.5302 16.0777 17.9852 14.9074 19.5179C14.7482 19.7266 14.5451 19.8961 14.3132 20.0139C14.0813 20.1316 13.8265 20.1946 13.5676 20.1982H13.5416ZM26.1963 8.87065C25.8135 8.87338 25.4406 8.74619 25.1362 8.509C24.8318 8.2718 24.613 7.938 24.5141 7.55999C24.4152 7.18198 24.4418 6.78112 24.5898 6.42026C24.7379 6.0594 24.9989 5.75895 25.3319 5.56604L26.1012 5.13309C26.3011 5.00976 26.5234 4.92911 26.7547 4.89602C26.9859 4.86292 27.2214 4.87805 27.4467 4.94051C27.6721 5.00297 27.8828 5.11145 28.066 5.25942C28.2493 5.40739 28.4013 5.59178 28.5129 5.80144C28.6245 6.01111 28.6934 6.24173 28.7154 6.47937C28.7375 6.71701 28.7122 6.95676 28.6411 7.18413C28.57 7.4115 28.4546 7.62177 28.3018 7.8023C28.149 7.98282 27.962 8.12983 27.7522 8.23447L27.0434 8.64091C26.7927 8.78626 26.5104 8.86524 26.2222 8.87065H26.1963ZM61.3855 6.17572C61.1823 6.17492 60.9806 6.13908 60.7891 6.06969L60.0284 5.79578C59.594 5.64463 59.2361 5.32324 59.0334 4.90235C58.8308 4.48146 58.8001 3.99554 58.9479 3.55146C59.0958 3.10738 59.4102 2.74153 59.8219 2.5344C60.2337 2.32727 60.709 2.29583 61.1434 2.44698L62.0078 2.74739C62.3906 2.88938 62.712 3.1649 62.9154 3.52539C63.1189 3.88588 63.1914 4.3082 63.1201 4.71797C63.0488 5.12773 62.8383 5.49861 62.5258 5.76528C62.2132 6.03196 61.8185 6.17732 61.4114 6.17572H61.3855ZM32.3334 5.98133C31.9277 5.97879 31.5359 5.83048 31.2264 5.5624C30.9169 5.29432 30.7095 4.92353 30.6405 4.51489C30.5714 4.10626 30.6452 3.68583 30.8488 3.32717C31.0524 2.96851 31.3729 2.69446 31.7543 2.553C35.3666 1.23302 39.1386 0.424404 42.9654 0.149646C43.1115 0.127383 43.2601 0.127383 43.4062 0.149646C43.5466 0.105357 43.6917 0.0786572 43.8384 0.0701262C45.8863 -0.0428869 47.9393 -0.0192863 49.9842 0.140801C50.2113 0.158206 50.4327 0.221161 50.6359 0.32605C50.8391 0.43094 51.0202 0.575719 51.1686 0.752124C51.3171 0.928528 51.4302 1.13311 51.5013 1.35417C51.5725 1.57523 51.6004 1.80847 51.5833 2.04054C51.5663 2.2726 51.5047 2.49896 51.4021 2.7067C51.2995 2.91445 51.1579 3.0995 50.9853 3.25129C50.8127 3.40308 50.6126 3.51864 50.3963 3.59137C50.1801 3.6641 49.9519 3.69256 49.7249 3.67515C47.8324 3.52839 45.9327 3.50479 44.0372 3.60448C43.8995 3.6226 43.76 3.6226 43.6223 3.60448C43.493 3.6474 43.3598 3.67701 43.2247 3.69284C39.7169 3.95084 36.2596 4.69393 32.9471 5.90181C32.7572 5.96272 32.5583 5.98962 32.3594 5.98133H32.3334Z" fill="white"/>
<path d="M57.7808 50.3551H57.556C57.3306 50.3256 57.1132 50.251 56.916 50.1356C56.7189 50.0202 56.5458 49.8662 56.407 49.6823C56.2681 49.4985 56.166 49.2885 56.1066 49.0643C56.0472 48.8401 56.0316 48.6062 56.0607 48.3758C56.156 47.6067 56.0852 46.8255 55.8532 46.0873C55.7122 45.6409 55.7505 45.1555 55.9596 44.7379C56.1687 44.3204 56.5315 44.0048 56.9683 43.8607C57.405 43.7166 57.8798 43.7557 58.2883 43.9694C58.6968 44.1832 59.0055 44.5541 59.1465 45.0005C59.5375 46.234 59.6556 47.5407 59.4923 48.8265C59.4359 49.2497 59.2315 49.6377 58.9168 49.9187C58.6022 50.1997 58.1986 50.3547 57.7808 50.3551Z" fill="white"/>
</svg>
