<svg width="542" height="210" viewBox="0 0 542 210" fill="none" xmlns="http://www.w3.org/2000/svg">
<g filter="url(#filter0_d)">
<mask id="path-1-outside-1" maskUnits="userSpaceOnUse" x="0.078125" y="0.567993" width="542" height="207" fill="black">
<rect fill="white" x="0.078125" y="0.567993" width="542" height="207"/>
<path d="M84.6841 120.4C94.5721 109.139 107.344 94.032 123 75.08C138.656 56.128 150.192 42.6693 157.608 34.704C165.024 26.7387 171.41 20.696 176.766 16.576C189.263 7.23733 201.967 2.56799 214.876 2.56799C217.76 2.56799 220.987 3.73533 224.558 6.07C228.266 8.40467 230.12 12.044 230.12 16.988C230.12 21.7947 225.519 29.2107 216.318 39.236C211.786 44.18 205.194 49.2613 196.542 54.48C188.027 59.5613 178.483 63.6813 167.908 66.84C163.925 67.5267 160.973 67.87 159.05 67.87C157.265 67.87 156.372 67.664 156.372 67.252C156.372 66.84 156.853 66.3593 157.814 65.81C169.35 59.4927 182.259 49.948 196.542 37.176C210.962 24.404 218.172 16.0267 218.172 12.044C218.172 11.4947 217.76 11.22 216.936 11.22C216.249 11.22 215.425 11.3573 214.464 11.632C213.64 11.9067 212.679 12.1813 211.58 12.456C210.481 12.7307 208.147 13.898 204.576 15.958C201.005 17.8807 197.229 20.3527 193.246 23.374C189.401 26.258 184.525 30.79 178.62 36.97C172.852 43.0127 167.015 50.0167 161.11 57.982C138.45 89.706 123.755 109.207 117.026 116.486C115.927 117.722 114.554 119.233 112.906 121.018C116.339 121.43 121.489 121.911 128.356 122.46C135.223 123.009 139.823 123.49 142.158 123.902C144.63 124.177 148.201 124.863 152.87 125.962C157.539 127.061 161.247 128.434 163.994 130.082C171.135 134.477 178.002 140.451 184.594 148.004C186.105 149.652 186.86 150.751 186.86 151.3C186.86 151.849 186.654 152.124 186.242 152.124C185.555 152.124 184.663 151.849 183.564 151.3C181.504 150.751 178.483 149.995 174.5 149.034C170.655 148.073 162.277 146.837 149.368 145.326C136.459 143.815 124.579 143.06 113.73 143.06C103.018 143.06 95.1901 143.129 90.2461 143.266C82.9675 150.133 72.7361 156.519 59.5521 162.424C46.3681 168.329 36.4801 171.282 29.8881 171.282C23.1588 171.282 16.8415 169.497 10.9361 165.926C5.03079 162.493 2.07812 157.823 2.07812 151.918C2.07812 147.661 5.30546 142.991 11.7601 137.91C26.5921 126.237 50.9001 120.4 84.6841 120.4ZM13.4081 157.892C13.4081 159.265 15.0561 160.158 18.3521 160.57C22.6095 160.57 26.2488 160.295 29.2701 159.746C32.2915 159.334 36.7548 157.823 42.6601 155.214C48.4281 152.605 54.5395 148.759 60.9941 143.678C52.2048 143.678 42.1108 145.257 30.7121 148.416C19.1761 151.575 13.4081 154.733 13.4081 157.892Z"/>
<path d="M178.011 133.476C181.659 133.476 186.162 131.082 191.52 126.294C196.878 121.506 199.671 118.2 199.899 116.376C198.531 115.236 197.049 113.184 195.453 110.22C193.971 107.142 193.173 105.603 193.059 105.603C189.525 108.909 186.39 112.728 183.654 117.06C179.322 124.356 177.156 129.372 177.156 132.108C177.156 133.02 177.441 133.476 178.011 133.476ZM214.947 91.581C213.807 91.581 211.413 93.348 207.765 96.882C204.231 100.416 202.464 102.867 202.464 104.235C202.464 104.577 202.806 105.261 203.49 106.287C204.174 107.313 204.687 107.826 205.029 107.826C206.967 107.826 209.133 105.489 211.527 100.815C214.035 96.141 215.289 93.462 215.289 92.778C215.289 91.98 215.175 91.581 214.947 91.581ZM215.289 113.64C218.481 113.64 223.44 111.702 230.166 107.826C237.006 103.95 242.991 100.074 248.121 96.198L255.816 90.213C256.842 91.011 257.355 91.98 257.355 93.12C257.355 94.26 256.842 95.286 255.816 96.198C237.006 113.64 222.756 122.361 213.066 122.361C212.382 122.361 211.356 122.247 209.988 122.019C197.106 136.953 186.048 144.42 176.814 144.42C170.658 143.508 166.782 141.342 165.186 137.922C164.274 136.212 163.818 134.046 163.818 131.424C163.818 123.9 168.15 114.951 176.814 104.577C185.478 94.089 196.365 86.394 209.475 81.492C210.615 81.492 211.47 81.777 212.04 82.347C212.61 82.803 213.123 83.088 213.579 83.202C214.035 83.202 214.605 82.974 215.289 82.518C216.087 81.948 217.113 81.663 218.367 81.663C219.621 81.549 220.932 82.233 222.3 83.715C224.124 85.197 225.036 87.021 225.036 89.187C225.036 95.571 221.787 103.722 215.289 113.64Z"/>
<path d="M302.862 61.998L311.583 61.827C322.869 61.827 331.077 63.423 336.207 66.615C338.715 67.413 339.969 68.439 339.969 69.693C339.969 70.605 338.829 71.232 336.549 71.574C334.383 71.916 326.688 72.828 313.464 74.31C300.354 75.678 291.348 76.476 286.446 76.704C284.28 76.818 279.264 80.58 271.398 87.99C263.646 95.4 256.236 103.551 249.168 112.443C242.1 121.335 238.566 127.548 238.566 131.082C238.566 131.652 238.851 132.165 239.421 132.621C239.991 132.963 240.675 133.134 241.473 133.134C242.385 133.134 243.753 132.792 245.577 132.108C267.237 119.34 288.27 105.375 308.676 90.213C309.702 91.011 310.215 91.98 310.215 93.12C310.215 94.26 309.645 95.4 308.505 96.54C307.365 97.566 305.655 99.105 303.375 101.157C301.209 103.209 297.105 106.914 291.063 112.272C285.021 117.63 279.321 122.418 273.963 126.636C259.599 138.264 249.567 144.99 243.867 146.814C241.815 147.384 239.364 147.669 236.514 147.669C233.778 147.669 231.213 146.244 228.819 143.394C226.539 140.544 225.399 136.668 225.399 131.766C225.399 126.864 228.534 119.796 234.804 110.562C241.188 101.328 249.852 91.866 260.796 82.176C261.822 81.378 262.335 80.637 262.335 79.953C262.335 79.269 261.138 78.927 258.744 78.927L247.971 79.269C232.809 79.269 225 77.559 224.544 74.139C221.01 73.455 219.243 72.429 219.243 71.061C219.243 70.605 219.471 70.377 219.927 70.377C220.383 70.263 220.782 70.206 221.124 70.206C221.466 70.092 222.036 69.978 222.834 69.864C223.632 69.75 229.902 68.838 241.644 67.128C253.5 65.418 266.952 63.993 282 62.853L293.799 47.121C294.483 45.753 296.877 45.069 300.981 45.069C305.085 45.069 307.137 45.924 307.137 47.634C307.137 48.204 306.681 49.23 305.769 50.712L301.494 56.697C300.924 58.521 300.582 59.889 300.468 60.801C300.468 61.599 301.266 61.998 302.862 61.998Z"/>
<path d="M356.467 61.998L365.188 61.827C376.474 61.827 384.682 63.423 389.812 66.615C392.32 67.413 393.574 68.439 393.574 69.693C393.574 70.605 392.434 71.232 390.154 71.574C387.988 71.916 380.293 72.828 367.069 74.31C353.959 75.678 344.953 76.476 340.051 76.704C337.885 76.818 332.869 80.58 325.003 87.99C317.251 95.4 309.841 103.551 302.773 112.443C295.705 121.335 292.171 127.548 292.171 131.082C292.171 131.652 292.456 132.165 293.026 132.621C293.596 132.963 294.28 133.134 295.078 133.134C295.99 133.134 297.358 132.792 299.182 132.108C320.842 119.34 341.875 105.375 362.281 90.213C363.307 91.011 363.82 91.98 363.82 93.12C363.82 94.26 363.25 95.4 362.11 96.54C360.97 97.566 359.26 99.105 356.98 101.157C354.814 103.209 350.71 106.914 344.668 112.272C338.626 117.63 332.926 122.418 327.568 126.636C313.204 138.264 303.172 144.99 297.472 146.814C295.42 147.384 292.969 147.669 290.119 147.669C287.383 147.669 284.818 146.244 282.424 143.394C280.144 140.544 279.004 136.668 279.004 131.766C279.004 126.864 282.139 119.796 288.409 110.562C294.793 101.328 303.457 91.866 314.401 82.176C315.427 81.378 315.94 80.637 315.94 79.953C315.94 79.269 314.743 78.927 312.349 78.927L301.576 79.269C286.414 79.269 278.605 77.559 278.149 74.139C274.615 73.455 272.848 72.429 272.848 71.061C272.848 70.605 273.076 70.377 273.532 70.377C273.988 70.263 274.387 70.206 274.729 70.206C275.071 70.092 275.641 69.978 276.439 69.864C277.237 69.75 283.507 68.838 295.249 67.128C307.105 65.418 320.557 63.993 335.605 62.853L347.404 47.121C348.088 45.753 350.482 45.069 354.586 45.069C358.69 45.069 360.742 45.924 360.742 47.634C360.742 48.204 360.286 49.23 359.374 50.712L355.099 56.697C354.529 58.521 354.187 59.889 354.073 60.801C354.073 61.599 354.871 61.998 356.467 61.998Z"/>
<path d="M384.592 89.358C381.628 89.358 376.612 92.436 369.544 98.592C362.476 104.634 358.942 108.339 358.942 109.707C358.942 109.935 359.113 110.049 359.455 110.049C361.963 110.049 366.922 107.256 374.332 101.67C381.856 96.084 385.618 92.265 385.618 90.213C385.618 89.643 385.276 89.358 384.592 89.358ZM348.169 144.078C339.391 144.078 335.002 138.72 335.002 128.004C335.002 121.278 337.909 114.153 343.723 106.629C349.651 98.991 356.605 92.778 364.585 87.99C372.565 83.088 379.633 80.637 385.789 80.637C388.525 80.637 391.033 81.72 393.313 83.886C395.707 86.052 396.904 88.161 396.904 90.213C396.904 93.975 394.225 98.25 388.867 103.038C383.509 107.712 377.866 111.531 371.938 114.495C366.124 117.345 362.248 118.77 360.31 118.77C358.486 118.77 357.118 117.915 356.206 116.205C355.75 115.863 355.123 115.692 354.325 115.692C353.527 115.692 352.216 117.231 350.392 120.309C348.568 123.273 347.656 125.724 347.656 127.662C347.656 129.486 348.34 130.626 349.708 131.082C358.372 131.082 367.777 128.574 377.923 123.558C388.069 118.428 402.091 109.479 419.989 96.711C421.243 95.799 423.124 94.431 425.632 92.607C428.254 90.783 429.793 89.7 430.249 89.358C431.275 90.156 431.788 91.125 431.788 92.265C431.788 93.405 431.275 94.431 430.249 95.343C424.549 101.043 417.139 107.427 408.019 114.495C399.013 121.563 388.639 128.289 376.897 134.673C365.155 140.943 355.579 144.078 348.169 144.078Z"/>
<path d="M401.7 109.023C407.97 104.691 414.525 100.017 421.365 95.001C417.717 92.493 415.38 90.042 414.354 87.648C414.012 86.85 413.841 86.28 413.841 85.938C413.841 83.658 414.582 82.176 416.064 81.492C417.546 80.694 419.94 80.295 423.246 80.295C424.5 80.295 428.205 81.834 434.361 84.912C440.517 87.99 444.393 89.529 445.989 89.529C447.699 89.529 450.036 89.073 453 88.161C455.964 87.135 458.301 86.622 460.011 86.622C461.835 86.622 463.146 87.021 463.944 87.819C466.794 91.581 468.219 93.861 468.219 94.659C468.219 95.457 467.82 96.141 467.022 96.711C466.338 97.167 464.001 98.763 460.011 101.499C456.135 104.235 452.316 107.028 448.554 109.878C444.792 112.728 441.258 115.92 437.952 119.454C434.646 122.988 432.993 125.838 432.993 128.004C432.993 128.346 433.278 128.517 433.848 128.517C440.004 128.517 460.752 116.034 496.092 91.068C496.89 91.068 497.289 91.809 497.289 93.291C497.289 94.659 492.786 99.561 483.78 107.997C474.774 116.319 464.571 124.527 453.171 132.621C441.885 140.601 433.677 144.591 428.547 144.591C420.567 144.591 416.577 140.601 416.577 132.621C416.577 128.289 418.002 124.128 420.852 120.138C423.816 116.034 429.972 110.562 439.32 103.722C437.382 103.722 434.76 103.266 431.454 102.354C428.148 101.328 426.039 100.131 425.127 98.763C422.163 101.385 417.033 105.774 409.737 111.93C408.027 113.184 405.804 113.811 403.068 113.811C400.332 113.811 398.964 113.412 398.964 112.614C398.964 111.702 399.876 110.505 401.7 109.023Z"/>
<path d="M531.154 85.767C536.512 86.337 539.191 87.534 539.191 89.358C539.191 90.156 538.735 91.068 537.823 92.094C521.749 109.992 503.281 132.792 482.419 160.494C476.377 168.702 470.221 176.454 463.951 183.75C457.681 191.046 451.81 196.347 446.338 199.653C440.866 203.073 435.166 204.783 429.238 204.783C426.274 204.783 423.652 203.985 421.372 202.389C419.092 200.793 417.952 198.627 417.952 195.891C417.952 189.507 421.03 182.895 427.186 176.055C433.342 169.215 440.239 163.629 447.877 159.297C455.515 155.079 462.127 152.628 467.713 151.944L471.304 152.457C472.444 152.343 476.605 147.954 483.787 139.29C491.083 130.626 494.731 126.066 494.731 125.61C494.845 125.04 494.788 124.755 494.56 124.755L491.311 127.32C482.761 135.3 476.092 139.29 471.304 139.29C468.226 139.29 466.687 137.124 466.687 132.792C466.687 126.978 471.418 117.801 480.88 105.261C490.342 92.721 497.296 86.451 501.742 86.451C502.084 86.451 502.483 86.565 502.939 86.793C506.131 87.591 507.727 88.731 507.727 90.213C507.727 90.783 507.556 91.239 507.214 91.581C506.986 91.809 505.846 92.892 503.794 94.83C501.856 96.768 499.918 98.82 497.98 100.986C496.042 103.038 493.99 105.318 491.824 107.826C486.922 113.526 484.471 117.801 484.471 120.651C484.471 121.335 484.813 121.677 485.497 121.677C486.295 121.677 487.72 121.05 489.772 119.796C505.96 108.738 518.614 98.193 527.734 88.161C528.532 86.565 529.672 85.767 531.154 85.767ZM426.844 197.259C430.834 196.005 436.192 192.072 442.918 185.46C449.644 178.962 455.401 172.806 460.189 166.992L467.371 158.1C468.055 157.188 468.397 156.618 468.397 156.39C468.397 156.162 468.226 156.048 467.884 156.048C464.236 156.048 459.049 158.841 452.323 164.427C445.483 170.013 439.441 176.112 434.197 182.724C428.839 189.336 426.16 194.01 426.16 196.746C426.16 197.088 426.388 197.259 426.844 197.259Z"/>
</mask>
<path d="M84.6841 120.4C94.5721 109.139 107.344 94.032 123 75.08C138.656 56.128 150.192 42.6693 157.608 34.704C165.024 26.7387 171.41 20.696 176.766 16.576C189.263 7.23733 201.967 2.56799 214.876 2.56799C217.76 2.56799 220.987 3.73533 224.558 6.07C228.266 8.40467 230.12 12.044 230.12 16.988C230.12 21.7947 225.519 29.2107 216.318 39.236C211.786 44.18 205.194 49.2613 196.542 54.48C188.027 59.5613 178.483 63.6813 167.908 66.84C163.925 67.5267 160.973 67.87 159.05 67.87C157.265 67.87 156.372 67.664 156.372 67.252C156.372 66.84 156.853 66.3593 157.814 65.81C169.35 59.4927 182.259 49.948 196.542 37.176C210.962 24.404 218.172 16.0267 218.172 12.044C218.172 11.4947 217.76 11.22 216.936 11.22C216.249 11.22 215.425 11.3573 214.464 11.632C213.64 11.9067 212.679 12.1813 211.58 12.456C210.481 12.7307 208.147 13.898 204.576 15.958C201.005 17.8807 197.229 20.3527 193.246 23.374C189.401 26.258 184.525 30.79 178.62 36.97C172.852 43.0127 167.015 50.0167 161.11 57.982C138.45 89.706 123.755 109.207 117.026 116.486C115.927 117.722 114.554 119.233 112.906 121.018C116.339 121.43 121.489 121.911 128.356 122.46C135.223 123.009 139.823 123.49 142.158 123.902C144.63 124.177 148.201 124.863 152.87 125.962C157.539 127.061 161.247 128.434 163.994 130.082C171.135 134.477 178.002 140.451 184.594 148.004C186.105 149.652 186.86 150.751 186.86 151.3C186.86 151.849 186.654 152.124 186.242 152.124C185.555 152.124 184.663 151.849 183.564 151.3C181.504 150.751 178.483 149.995 174.5 149.034C170.655 148.073 162.277 146.837 149.368 145.326C136.459 143.815 124.579 143.06 113.73 143.06C103.018 143.06 95.1901 143.129 90.2461 143.266C82.9675 150.133 72.7361 156.519 59.5521 162.424C46.3681 168.329 36.4801 171.282 29.8881 171.282C23.1588 171.282 16.8415 169.497 10.9361 165.926C5.03079 162.493 2.07812 157.823 2.07812 151.918C2.07812 147.661 5.30546 142.991 11.7601 137.91C26.5921 126.237 50.9001 120.4 84.6841 120.4ZM13.4081 157.892C13.4081 159.265 15.0561 160.158 18.3521 160.57C22.6095 160.57 26.2488 160.295 29.2701 159.746C32.2915 159.334 36.7548 157.823 42.6601 155.214C48.4281 152.605 54.5395 148.759 60.9941 143.678C52.2048 143.678 42.1108 145.257 30.7121 148.416C19.1761 151.575 13.4081 154.733 13.4081 157.892Z" fill="#ECB626"/>
<path d="M84.6841 120.4C94.5721 109.139 107.344 94.032 123 75.08C138.656 56.128 150.192 42.6693 157.608 34.704C165.024 26.7387 171.41 20.696 176.766 16.576C189.263 7.23733 201.967 2.56799 214.876 2.56799C217.76 2.56799 220.987 3.73533 224.558 6.07C228.266 8.40467 230.12 12.044 230.12 16.988C230.12 21.7947 225.519 29.2107 216.318 39.236C211.786 44.18 205.194 49.2613 196.542 54.48C188.027 59.5613 178.483 63.6813 167.908 66.84C163.925 67.5267 160.973 67.87 159.05 67.87C157.265 67.87 156.372 67.664 156.372 67.252C156.372 66.84 156.853 66.3593 157.814 65.81C169.35 59.4927 182.259 49.948 196.542 37.176C210.962 24.404 218.172 16.0267 218.172 12.044C218.172 11.4947 217.76 11.22 216.936 11.22C216.249 11.22 215.425 11.3573 214.464 11.632C213.64 11.9067 212.679 12.1813 211.58 12.456C210.481 12.7307 208.147 13.898 204.576 15.958C201.005 17.8807 197.229 20.3527 193.246 23.374C189.401 26.258 184.525 30.79 178.62 36.97C172.852 43.0127 167.015 50.0167 161.11 57.982C138.45 89.706 123.755 109.207 117.026 116.486C115.927 117.722 114.554 119.233 112.906 121.018C116.339 121.43 121.489 121.911 128.356 122.46C135.223 123.009 139.823 123.49 142.158 123.902C144.63 124.177 148.201 124.863 152.87 125.962C157.539 127.061 161.247 128.434 163.994 130.082C171.135 134.477 178.002 140.451 184.594 148.004C186.105 149.652 186.86 150.751 186.86 151.3C186.86 151.849 186.654 152.124 186.242 152.124C185.555 152.124 184.663 151.849 183.564 151.3C181.504 150.751 178.483 149.995 174.5 149.034C170.655 148.073 162.277 146.837 149.368 145.326C136.459 143.815 124.579 143.06 113.73 143.06C103.018 143.06 95.1901 143.129 90.2461 143.266C82.9675 150.133 72.7361 156.519 59.5521 162.424C46.3681 168.329 36.4801 171.282 29.8881 171.282C23.1588 171.282 16.8415 169.497 10.9361 165.926C5.03079 162.493 2.07812 157.823 2.07812 151.918C2.07812 147.661 5.30546 142.991 11.7601 137.91C26.5921 126.237 50.9001 120.4 84.6841 120.4ZM13.4081 157.892C13.4081 159.265 15.0561 160.158 18.3521 160.57C22.6095 160.57 26.2488 160.295 29.2701 159.746C32.2915 159.334 36.7548 157.823 42.6601 155.214C48.4281 152.605 54.5395 148.759 60.9941 143.678C52.2048 143.678 42.1108 145.257 30.7121 148.416C19.1761 151.575 13.4081 154.733 13.4081 157.892Z" fill="url(#paint0_linear)"/>
<path d="M84.6841 120.4C94.5721 109.139 107.344 94.032 123 75.08C138.656 56.128 150.192 42.6693 157.608 34.704C165.024 26.7387 171.41 20.696 176.766 16.576C189.263 7.23733 201.967 2.56799 214.876 2.56799C217.76 2.56799 220.987 3.73533 224.558 6.07C228.266 8.40467 230.12 12.044 230.12 16.988C230.12 21.7947 225.519 29.2107 216.318 39.236C211.786 44.18 205.194 49.2613 196.542 54.48C188.027 59.5613 178.483 63.6813 167.908 66.84C163.925 67.5267 160.973 67.87 159.05 67.87C157.265 67.87 156.372 67.664 156.372 67.252C156.372 66.84 156.853 66.3593 157.814 65.81C169.35 59.4927 182.259 49.948 196.542 37.176C210.962 24.404 218.172 16.0267 218.172 12.044C218.172 11.4947 217.76 11.22 216.936 11.22C216.249 11.22 215.425 11.3573 214.464 11.632C213.64 11.9067 212.679 12.1813 211.58 12.456C210.481 12.7307 208.147 13.898 204.576 15.958C201.005 17.8807 197.229 20.3527 193.246 23.374C189.401 26.258 184.525 30.79 178.62 36.97C172.852 43.0127 167.015 50.0167 161.11 57.982C138.45 89.706 123.755 109.207 117.026 116.486C115.927 117.722 114.554 119.233 112.906 121.018C116.339 121.43 121.489 121.911 128.356 122.46C135.223 123.009 139.823 123.49 142.158 123.902C144.63 124.177 148.201 124.863 152.87 125.962C157.539 127.061 161.247 128.434 163.994 130.082C171.135 134.477 178.002 140.451 184.594 148.004C186.105 149.652 186.86 150.751 186.86 151.3C186.86 151.849 186.654 152.124 186.242 152.124C185.555 152.124 184.663 151.849 183.564 151.3C181.504 150.751 178.483 149.995 174.5 149.034C170.655 148.073 162.277 146.837 149.368 145.326C136.459 143.815 124.579 143.06 113.73 143.06C103.018 143.06 95.1901 143.129 90.2461 143.266C82.9675 150.133 72.7361 156.519 59.5521 162.424C46.3681 168.329 36.4801 171.282 29.8881 171.282C23.1588 171.282 16.8415 169.497 10.9361 165.926C5.03079 162.493 2.07812 157.823 2.07812 151.918C2.07812 147.661 5.30546 142.991 11.7601 137.91C26.5921 126.237 50.9001 120.4 84.6841 120.4ZM13.4081 157.892C13.4081 159.265 15.0561 160.158 18.3521 160.57C22.6095 160.57 26.2488 160.295 29.2701 159.746C32.2915 159.334 36.7548 157.823 42.6601 155.214C48.4281 152.605 54.5395 148.759 60.9941 143.678C52.2048 143.678 42.1108 145.257 30.7121 148.416C19.1761 151.575 13.4081 154.733 13.4081 157.892Z" fill="url(#paint1_radial)" fill-opacity="0.6"/>
<path d="M178.011 133.476C181.659 133.476 186.162 131.082 191.52 126.294C196.878 121.506 199.671 118.2 199.899 116.376C198.531 115.236 197.049 113.184 195.453 110.22C193.971 107.142 193.173 105.603 193.059 105.603C189.525 108.909 186.39 112.728 183.654 117.06C179.322 124.356 177.156 129.372 177.156 132.108C177.156 133.02 177.441 133.476 178.011 133.476ZM214.947 91.581C213.807 91.581 211.413 93.348 207.765 96.882C204.231 100.416 202.464 102.867 202.464 104.235C202.464 104.577 202.806 105.261 203.49 106.287C204.174 107.313 204.687 107.826 205.029 107.826C206.967 107.826 209.133 105.489 211.527 100.815C214.035 96.141 215.289 93.462 215.289 92.778C215.289 91.98 215.175 91.581 214.947 91.581ZM215.289 113.64C218.481 113.64 223.44 111.702 230.166 107.826C237.006 103.95 242.991 100.074 248.121 96.198L255.816 90.213C256.842 91.011 257.355 91.98 257.355 93.12C257.355 94.26 256.842 95.286 255.816 96.198C237.006 113.64 222.756 122.361 213.066 122.361C212.382 122.361 211.356 122.247 209.988 122.019C197.106 136.953 186.048 144.42 176.814 144.42C170.658 143.508 166.782 141.342 165.186 137.922C164.274 136.212 163.818 134.046 163.818 131.424C163.818 123.9 168.15 114.951 176.814 104.577C185.478 94.089 196.365 86.394 209.475 81.492C210.615 81.492 211.47 81.777 212.04 82.347C212.61 82.803 213.123 83.088 213.579 83.202C214.035 83.202 214.605 82.974 215.289 82.518C216.087 81.948 217.113 81.663 218.367 81.663C219.621 81.549 220.932 82.233 222.3 83.715C224.124 85.197 225.036 87.021 225.036 89.187C225.036 95.571 221.787 103.722 215.289 113.64Z" fill="#ECB626"/>
<path d="M178.011 133.476C181.659 133.476 186.162 131.082 191.52 126.294C196.878 121.506 199.671 118.2 199.899 116.376C198.531 115.236 197.049 113.184 195.453 110.22C193.971 107.142 193.173 105.603 193.059 105.603C189.525 108.909 186.39 112.728 183.654 117.06C179.322 124.356 177.156 129.372 177.156 132.108C177.156 133.02 177.441 133.476 178.011 133.476ZM214.947 91.581C213.807 91.581 211.413 93.348 207.765 96.882C204.231 100.416 202.464 102.867 202.464 104.235C202.464 104.577 202.806 105.261 203.49 106.287C204.174 107.313 204.687 107.826 205.029 107.826C206.967 107.826 209.133 105.489 211.527 100.815C214.035 96.141 215.289 93.462 215.289 92.778C215.289 91.98 215.175 91.581 214.947 91.581ZM215.289 113.64C218.481 113.64 223.44 111.702 230.166 107.826C237.006 103.95 242.991 100.074 248.121 96.198L255.816 90.213C256.842 91.011 257.355 91.98 257.355 93.12C257.355 94.26 256.842 95.286 255.816 96.198C237.006 113.64 222.756 122.361 213.066 122.361C212.382 122.361 211.356 122.247 209.988 122.019C197.106 136.953 186.048 144.42 176.814 144.42C170.658 143.508 166.782 141.342 165.186 137.922C164.274 136.212 163.818 134.046 163.818 131.424C163.818 123.9 168.15 114.951 176.814 104.577C185.478 94.089 196.365 86.394 209.475 81.492C210.615 81.492 211.47 81.777 212.04 82.347C212.61 82.803 213.123 83.088 213.579 83.202C214.035 83.202 214.605 82.974 215.289 82.518C216.087 81.948 217.113 81.663 218.367 81.663C219.621 81.549 220.932 82.233 222.3 83.715C224.124 85.197 225.036 87.021 225.036 89.187C225.036 95.571 221.787 103.722 215.289 113.64Z" fill="url(#paint2_linear)"/>
<path d="M178.011 133.476C181.659 133.476 186.162 131.082 191.52 126.294C196.878 121.506 199.671 118.2 199.899 116.376C198.531 115.236 197.049 113.184 195.453 110.22C193.971 107.142 193.173 105.603 193.059 105.603C189.525 108.909 186.39 112.728 183.654 117.06C179.322 124.356 177.156 129.372 177.156 132.108C177.156 133.02 177.441 133.476 178.011 133.476ZM214.947 91.581C213.807 91.581 211.413 93.348 207.765 96.882C204.231 100.416 202.464 102.867 202.464 104.235C202.464 104.577 202.806 105.261 203.49 106.287C204.174 107.313 204.687 107.826 205.029 107.826C206.967 107.826 209.133 105.489 211.527 100.815C214.035 96.141 215.289 93.462 215.289 92.778C215.289 91.98 215.175 91.581 214.947 91.581ZM215.289 113.64C218.481 113.64 223.44 111.702 230.166 107.826C237.006 103.95 242.991 100.074 248.121 96.198L255.816 90.213C256.842 91.011 257.355 91.98 257.355 93.12C257.355 94.26 256.842 95.286 255.816 96.198C237.006 113.64 222.756 122.361 213.066 122.361C212.382 122.361 211.356 122.247 209.988 122.019C197.106 136.953 186.048 144.42 176.814 144.42C170.658 143.508 166.782 141.342 165.186 137.922C164.274 136.212 163.818 134.046 163.818 131.424C163.818 123.9 168.15 114.951 176.814 104.577C185.478 94.089 196.365 86.394 209.475 81.492C210.615 81.492 211.47 81.777 212.04 82.347C212.61 82.803 213.123 83.088 213.579 83.202C214.035 83.202 214.605 82.974 215.289 82.518C216.087 81.948 217.113 81.663 218.367 81.663C219.621 81.549 220.932 82.233 222.3 83.715C224.124 85.197 225.036 87.021 225.036 89.187C225.036 95.571 221.787 103.722 215.289 113.64Z" fill="url(#paint3_radial)" fill-opacity="0.6"/>
<path d="M302.862 61.998L311.583 61.827C322.869 61.827 331.077 63.423 336.207 66.615C338.715 67.413 339.969 68.439 339.969 69.693C339.969 70.605 338.829 71.232 336.549 71.574C334.383 71.916 326.688 72.828 313.464 74.31C300.354 75.678 291.348 76.476 286.446 76.704C284.28 76.818 279.264 80.58 271.398 87.99C263.646 95.4 256.236 103.551 249.168 112.443C242.1 121.335 238.566 127.548 238.566 131.082C238.566 131.652 238.851 132.165 239.421 132.621C239.991 132.963 240.675 133.134 241.473 133.134C242.385 133.134 243.753 132.792 245.577 132.108C267.237 119.34 288.27 105.375 308.676 90.213C309.702 91.011 310.215 91.98 310.215 93.12C310.215 94.26 309.645 95.4 308.505 96.54C307.365 97.566 305.655 99.105 303.375 101.157C301.209 103.209 297.105 106.914 291.063 112.272C285.021 117.63 279.321 122.418 273.963 126.636C259.599 138.264 249.567 144.99 243.867 146.814C241.815 147.384 239.364 147.669 236.514 147.669C233.778 147.669 231.213 146.244 228.819 143.394C226.539 140.544 225.399 136.668 225.399 131.766C225.399 126.864 228.534 119.796 234.804 110.562C241.188 101.328 249.852 91.866 260.796 82.176C261.822 81.378 262.335 80.637 262.335 79.953C262.335 79.269 261.138 78.927 258.744 78.927L247.971 79.269C232.809 79.269 225 77.559 224.544 74.139C221.01 73.455 219.243 72.429 219.243 71.061C219.243 70.605 219.471 70.377 219.927 70.377C220.383 70.263 220.782 70.206 221.124 70.206C221.466 70.092 222.036 69.978 222.834 69.864C223.632 69.75 229.902 68.838 241.644 67.128C253.5 65.418 266.952 63.993 282 62.853L293.799 47.121C294.483 45.753 296.877 45.069 300.981 45.069C305.085 45.069 307.137 45.924 307.137 47.634C307.137 48.204 306.681 49.23 305.769 50.712L301.494 56.697C300.924 58.521 300.582 59.889 300.468 60.801C300.468 61.599 301.266 61.998 302.862 61.998Z" fill="#ECB626"/>
<path d="M302.862 61.998L311.583 61.827C322.869 61.827 331.077 63.423 336.207 66.615C338.715 67.413 339.969 68.439 339.969 69.693C339.969 70.605 338.829 71.232 336.549 71.574C334.383 71.916 326.688 72.828 313.464 74.31C300.354 75.678 291.348 76.476 286.446 76.704C284.28 76.818 279.264 80.58 271.398 87.99C263.646 95.4 256.236 103.551 249.168 112.443C242.1 121.335 238.566 127.548 238.566 131.082C238.566 131.652 238.851 132.165 239.421 132.621C239.991 132.963 240.675 133.134 241.473 133.134C242.385 133.134 243.753 132.792 245.577 132.108C267.237 119.34 288.27 105.375 308.676 90.213C309.702 91.011 310.215 91.98 310.215 93.12C310.215 94.26 309.645 95.4 308.505 96.54C307.365 97.566 305.655 99.105 303.375 101.157C301.209 103.209 297.105 106.914 291.063 112.272C285.021 117.63 279.321 122.418 273.963 126.636C259.599 138.264 249.567 144.99 243.867 146.814C241.815 147.384 239.364 147.669 236.514 147.669C233.778 147.669 231.213 146.244 228.819 143.394C226.539 140.544 225.399 136.668 225.399 131.766C225.399 126.864 228.534 119.796 234.804 110.562C241.188 101.328 249.852 91.866 260.796 82.176C261.822 81.378 262.335 80.637 262.335 79.953C262.335 79.269 261.138 78.927 258.744 78.927L247.971 79.269C232.809 79.269 225 77.559 224.544 74.139C221.01 73.455 219.243 72.429 219.243 71.061C219.243 70.605 219.471 70.377 219.927 70.377C220.383 70.263 220.782 70.206 221.124 70.206C221.466 70.092 222.036 69.978 222.834 69.864C223.632 69.75 229.902 68.838 241.644 67.128C253.5 65.418 266.952 63.993 282 62.853L293.799 47.121C294.483 45.753 296.877 45.069 300.981 45.069C305.085 45.069 307.137 45.924 307.137 47.634C307.137 48.204 306.681 49.23 305.769 50.712L301.494 56.697C300.924 58.521 300.582 59.889 300.468 60.801C300.468 61.599 301.266 61.998 302.862 61.998Z" fill="url(#paint4_linear)"/>
<path d="M302.862 61.998L311.583 61.827C322.869 61.827 331.077 63.423 336.207 66.615C338.715 67.413 339.969 68.439 339.969 69.693C339.969 70.605 338.829 71.232 336.549 71.574C334.383 71.916 326.688 72.828 313.464 74.31C300.354 75.678 291.348 76.476 286.446 76.704C284.28 76.818 279.264 80.58 271.398 87.99C263.646 95.4 256.236 103.551 249.168 112.443C242.1 121.335 238.566 127.548 238.566 131.082C238.566 131.652 238.851 132.165 239.421 132.621C239.991 132.963 240.675 133.134 241.473 133.134C242.385 133.134 243.753 132.792 245.577 132.108C267.237 119.34 288.27 105.375 308.676 90.213C309.702 91.011 310.215 91.98 310.215 93.12C310.215 94.26 309.645 95.4 308.505 96.54C307.365 97.566 305.655 99.105 303.375 101.157C301.209 103.209 297.105 106.914 291.063 112.272C285.021 117.63 279.321 122.418 273.963 126.636C259.599 138.264 249.567 144.99 243.867 146.814C241.815 147.384 239.364 147.669 236.514 147.669C233.778 147.669 231.213 146.244 228.819 143.394C226.539 140.544 225.399 136.668 225.399 131.766C225.399 126.864 228.534 119.796 234.804 110.562C241.188 101.328 249.852 91.866 260.796 82.176C261.822 81.378 262.335 80.637 262.335 79.953C262.335 79.269 261.138 78.927 258.744 78.927L247.971 79.269C232.809 79.269 225 77.559 224.544 74.139C221.01 73.455 219.243 72.429 219.243 71.061C219.243 70.605 219.471 70.377 219.927 70.377C220.383 70.263 220.782 70.206 221.124 70.206C221.466 70.092 222.036 69.978 222.834 69.864C223.632 69.75 229.902 68.838 241.644 67.128C253.5 65.418 266.952 63.993 282 62.853L293.799 47.121C294.483 45.753 296.877 45.069 300.981 45.069C305.085 45.069 307.137 45.924 307.137 47.634C307.137 48.204 306.681 49.23 305.769 50.712L301.494 56.697C300.924 58.521 300.582 59.889 300.468 60.801C300.468 61.599 301.266 61.998 302.862 61.998Z" fill="url(#paint5_radial)" fill-opacity="0.6"/>
<path d="M356.467 61.998L365.188 61.827C376.474 61.827 384.682 63.423 389.812 66.615C392.32 67.413 393.574 68.439 393.574 69.693C393.574 70.605 392.434 71.232 390.154 71.574C387.988 71.916 380.293 72.828 367.069 74.31C353.959 75.678 344.953 76.476 340.051 76.704C337.885 76.818 332.869 80.58 325.003 87.99C317.251 95.4 309.841 103.551 302.773 112.443C295.705 121.335 292.171 127.548 292.171 131.082C292.171 131.652 292.456 132.165 293.026 132.621C293.596 132.963 294.28 133.134 295.078 133.134C295.99 133.134 297.358 132.792 299.182 132.108C320.842 119.34 341.875 105.375 362.281 90.213C363.307 91.011 363.82 91.98 363.82 93.12C363.82 94.26 363.25 95.4 362.11 96.54C360.97 97.566 359.26 99.105 356.98 101.157C354.814 103.209 350.71 106.914 344.668 112.272C338.626 117.63 332.926 122.418 327.568 126.636C313.204 138.264 303.172 144.99 297.472 146.814C295.42 147.384 292.969 147.669 290.119 147.669C287.383 147.669 284.818 146.244 282.424 143.394C280.144 140.544 279.004 136.668 279.004 131.766C279.004 126.864 282.139 119.796 288.409 110.562C294.793 101.328 303.457 91.866 314.401 82.176C315.427 81.378 315.94 80.637 315.94 79.953C315.94 79.269 314.743 78.927 312.349 78.927L301.576 79.269C286.414 79.269 278.605 77.559 278.149 74.139C274.615 73.455 272.848 72.429 272.848 71.061C272.848 70.605 273.076 70.377 273.532 70.377C273.988 70.263 274.387 70.206 274.729 70.206C275.071 70.092 275.641 69.978 276.439 69.864C277.237 69.75 283.507 68.838 295.249 67.128C307.105 65.418 320.557 63.993 335.605 62.853L347.404 47.121C348.088 45.753 350.482 45.069 354.586 45.069C358.69 45.069 360.742 45.924 360.742 47.634C360.742 48.204 360.286 49.23 359.374 50.712L355.099 56.697C354.529 58.521 354.187 59.889 354.073 60.801C354.073 61.599 354.871 61.998 356.467 61.998Z" fill="#ECB626"/>
<path d="M356.467 61.998L365.188 61.827C376.474 61.827 384.682 63.423 389.812 66.615C392.32 67.413 393.574 68.439 393.574 69.693C393.574 70.605 392.434 71.232 390.154 71.574C387.988 71.916 380.293 72.828 367.069 74.31C353.959 75.678 344.953 76.476 340.051 76.704C337.885 76.818 332.869 80.58 325.003 87.99C317.251 95.4 309.841 103.551 302.773 112.443C295.705 121.335 292.171 127.548 292.171 131.082C292.171 131.652 292.456 132.165 293.026 132.621C293.596 132.963 294.28 133.134 295.078 133.134C295.99 133.134 297.358 132.792 299.182 132.108C320.842 119.34 341.875 105.375 362.281 90.213C363.307 91.011 363.82 91.98 363.82 93.12C363.82 94.26 363.25 95.4 362.11 96.54C360.97 97.566 359.26 99.105 356.98 101.157C354.814 103.209 350.71 106.914 344.668 112.272C338.626 117.63 332.926 122.418 327.568 126.636C313.204 138.264 303.172 144.99 297.472 146.814C295.42 147.384 292.969 147.669 290.119 147.669C287.383 147.669 284.818 146.244 282.424 143.394C280.144 140.544 279.004 136.668 279.004 131.766C279.004 126.864 282.139 119.796 288.409 110.562C294.793 101.328 303.457 91.866 314.401 82.176C315.427 81.378 315.94 80.637 315.94 79.953C315.94 79.269 314.743 78.927 312.349 78.927L301.576 79.269C286.414 79.269 278.605 77.559 278.149 74.139C274.615 73.455 272.848 72.429 272.848 71.061C272.848 70.605 273.076 70.377 273.532 70.377C273.988 70.263 274.387 70.206 274.729 70.206C275.071 70.092 275.641 69.978 276.439 69.864C277.237 69.75 283.507 68.838 295.249 67.128C307.105 65.418 320.557 63.993 335.605 62.853L347.404 47.121C348.088 45.753 350.482 45.069 354.586 45.069C358.69 45.069 360.742 45.924 360.742 47.634C360.742 48.204 360.286 49.23 359.374 50.712L355.099 56.697C354.529 58.521 354.187 59.889 354.073 60.801C354.073 61.599 354.871 61.998 356.467 61.998Z" fill="url(#paint6_linear)"/>
<path d="M356.467 61.998L365.188 61.827C376.474 61.827 384.682 63.423 389.812 66.615C392.32 67.413 393.574 68.439 393.574 69.693C393.574 70.605 392.434 71.232 390.154 71.574C387.988 71.916 380.293 72.828 367.069 74.31C353.959 75.678 344.953 76.476 340.051 76.704C337.885 76.818 332.869 80.58 325.003 87.99C317.251 95.4 309.841 103.551 302.773 112.443C295.705 121.335 292.171 127.548 292.171 131.082C292.171 131.652 292.456 132.165 293.026 132.621C293.596 132.963 294.28 133.134 295.078 133.134C295.99 133.134 297.358 132.792 299.182 132.108C320.842 119.34 341.875 105.375 362.281 90.213C363.307 91.011 363.82 91.98 363.82 93.12C363.82 94.26 363.25 95.4 362.11 96.54C360.97 97.566 359.26 99.105 356.98 101.157C354.814 103.209 350.71 106.914 344.668 112.272C338.626 117.63 332.926 122.418 327.568 126.636C313.204 138.264 303.172 144.99 297.472 146.814C295.42 147.384 292.969 147.669 290.119 147.669C287.383 147.669 284.818 146.244 282.424 143.394C280.144 140.544 279.004 136.668 279.004 131.766C279.004 126.864 282.139 119.796 288.409 110.562C294.793 101.328 303.457 91.866 314.401 82.176C315.427 81.378 315.94 80.637 315.94 79.953C315.94 79.269 314.743 78.927 312.349 78.927L301.576 79.269C286.414 79.269 278.605 77.559 278.149 74.139C274.615 73.455 272.848 72.429 272.848 71.061C272.848 70.605 273.076 70.377 273.532 70.377C273.988 70.263 274.387 70.206 274.729 70.206C275.071 70.092 275.641 69.978 276.439 69.864C277.237 69.75 283.507 68.838 295.249 67.128C307.105 65.418 320.557 63.993 335.605 62.853L347.404 47.121C348.088 45.753 350.482 45.069 354.586 45.069C358.69 45.069 360.742 45.924 360.742 47.634C360.742 48.204 360.286 49.23 359.374 50.712L355.099 56.697C354.529 58.521 354.187 59.889 354.073 60.801C354.073 61.599 354.871 61.998 356.467 61.998Z" fill="url(#paint7_radial)" fill-opacity="0.6"/>
<path d="M384.592 89.358C381.628 89.358 376.612 92.436 369.544 98.592C362.476 104.634 358.942 108.339 358.942 109.707C358.942 109.935 359.113 110.049 359.455 110.049C361.963 110.049 366.922 107.256 374.332 101.67C381.856 96.084 385.618 92.265 385.618 90.213C385.618 89.643 385.276 89.358 384.592 89.358ZM348.169 144.078C339.391 144.078 335.002 138.72 335.002 128.004C335.002 121.278 337.909 114.153 343.723 106.629C349.651 98.991 356.605 92.778 364.585 87.99C372.565 83.088 379.633 80.637 385.789 80.637C388.525 80.637 391.033 81.72 393.313 83.886C395.707 86.052 396.904 88.161 396.904 90.213C396.904 93.975 394.225 98.25 388.867 103.038C383.509 107.712 377.866 111.531 371.938 114.495C366.124 117.345 362.248 118.77 360.31 118.77C358.486 118.77 357.118 117.915 356.206 116.205C355.75 115.863 355.123 115.692 354.325 115.692C353.527 115.692 352.216 117.231 350.392 120.309C348.568 123.273 347.656 125.724 347.656 127.662C347.656 129.486 348.34 130.626 349.708 131.082C358.372 131.082 367.777 128.574 377.923 123.558C388.069 118.428 402.091 109.479 419.989 96.711C421.243 95.799 423.124 94.431 425.632 92.607C428.254 90.783 429.793 89.7 430.249 89.358C431.275 90.156 431.788 91.125 431.788 92.265C431.788 93.405 431.275 94.431 430.249 95.343C424.549 101.043 417.139 107.427 408.019 114.495C399.013 121.563 388.639 128.289 376.897 134.673C365.155 140.943 355.579 144.078 348.169 144.078Z" fill="#ECB626"/>
<path d="M384.592 89.358C381.628 89.358 376.612 92.436 369.544 98.592C362.476 104.634 358.942 108.339 358.942 109.707C358.942 109.935 359.113 110.049 359.455 110.049C361.963 110.049 366.922 107.256 374.332 101.67C381.856 96.084 385.618 92.265 385.618 90.213C385.618 89.643 385.276 89.358 384.592 89.358ZM348.169 144.078C339.391 144.078 335.002 138.72 335.002 128.004C335.002 121.278 337.909 114.153 343.723 106.629C349.651 98.991 356.605 92.778 364.585 87.99C372.565 83.088 379.633 80.637 385.789 80.637C388.525 80.637 391.033 81.72 393.313 83.886C395.707 86.052 396.904 88.161 396.904 90.213C396.904 93.975 394.225 98.25 388.867 103.038C383.509 107.712 377.866 111.531 371.938 114.495C366.124 117.345 362.248 118.77 360.31 118.77C358.486 118.77 357.118 117.915 356.206 116.205C355.75 115.863 355.123 115.692 354.325 115.692C353.527 115.692 352.216 117.231 350.392 120.309C348.568 123.273 347.656 125.724 347.656 127.662C347.656 129.486 348.34 130.626 349.708 131.082C358.372 131.082 367.777 128.574 377.923 123.558C388.069 118.428 402.091 109.479 419.989 96.711C421.243 95.799 423.124 94.431 425.632 92.607C428.254 90.783 429.793 89.7 430.249 89.358C431.275 90.156 431.788 91.125 431.788 92.265C431.788 93.405 431.275 94.431 430.249 95.343C424.549 101.043 417.139 107.427 408.019 114.495C399.013 121.563 388.639 128.289 376.897 134.673C365.155 140.943 355.579 144.078 348.169 144.078Z" fill="url(#paint8_linear)"/>
<path d="M384.592 89.358C381.628 89.358 376.612 92.436 369.544 98.592C362.476 104.634 358.942 108.339 358.942 109.707C358.942 109.935 359.113 110.049 359.455 110.049C361.963 110.049 366.922 107.256 374.332 101.67C381.856 96.084 385.618 92.265 385.618 90.213C385.618 89.643 385.276 89.358 384.592 89.358ZM348.169 144.078C339.391 144.078 335.002 138.72 335.002 128.004C335.002 121.278 337.909 114.153 343.723 106.629C349.651 98.991 356.605 92.778 364.585 87.99C372.565 83.088 379.633 80.637 385.789 80.637C388.525 80.637 391.033 81.72 393.313 83.886C395.707 86.052 396.904 88.161 396.904 90.213C396.904 93.975 394.225 98.25 388.867 103.038C383.509 107.712 377.866 111.531 371.938 114.495C366.124 117.345 362.248 118.77 360.31 118.77C358.486 118.77 357.118 117.915 356.206 116.205C355.75 115.863 355.123 115.692 354.325 115.692C353.527 115.692 352.216 117.231 350.392 120.309C348.568 123.273 347.656 125.724 347.656 127.662C347.656 129.486 348.34 130.626 349.708 131.082C358.372 131.082 367.777 128.574 377.923 123.558C388.069 118.428 402.091 109.479 419.989 96.711C421.243 95.799 423.124 94.431 425.632 92.607C428.254 90.783 429.793 89.7 430.249 89.358C431.275 90.156 431.788 91.125 431.788 92.265C431.788 93.405 431.275 94.431 430.249 95.343C424.549 101.043 417.139 107.427 408.019 114.495C399.013 121.563 388.639 128.289 376.897 134.673C365.155 140.943 355.579 144.078 348.169 144.078Z" fill="url(#paint9_radial)" fill-opacity="0.6"/>
<path d="M401.7 109.023C407.97 104.691 414.525 100.017 421.365 95.001C417.717 92.493 415.38 90.042 414.354 87.648C414.012 86.85 413.841 86.28 413.841 85.938C413.841 83.658 414.582 82.176 416.064 81.492C417.546 80.694 419.94 80.295 423.246 80.295C424.5 80.295 428.205 81.834 434.361 84.912C440.517 87.99 444.393 89.529 445.989 89.529C447.699 89.529 450.036 89.073 453 88.161C455.964 87.135 458.301 86.622 460.011 86.622C461.835 86.622 463.146 87.021 463.944 87.819C466.794 91.581 468.219 93.861 468.219 94.659C468.219 95.457 467.82 96.141 467.022 96.711C466.338 97.167 464.001 98.763 460.011 101.499C456.135 104.235 452.316 107.028 448.554 109.878C444.792 112.728 441.258 115.92 437.952 119.454C434.646 122.988 432.993 125.838 432.993 128.004C432.993 128.346 433.278 128.517 433.848 128.517C440.004 128.517 460.752 116.034 496.092 91.068C496.89 91.068 497.289 91.809 497.289 93.291C497.289 94.659 492.786 99.561 483.78 107.997C474.774 116.319 464.571 124.527 453.171 132.621C441.885 140.601 433.677 144.591 428.547 144.591C420.567 144.591 416.577 140.601 416.577 132.621C416.577 128.289 418.002 124.128 420.852 120.138C423.816 116.034 429.972 110.562 439.32 103.722C437.382 103.722 434.76 103.266 431.454 102.354C428.148 101.328 426.039 100.131 425.127 98.763C422.163 101.385 417.033 105.774 409.737 111.93C408.027 113.184 405.804 113.811 403.068 113.811C400.332 113.811 398.964 113.412 398.964 112.614C398.964 111.702 399.876 110.505 401.7 109.023Z" fill="#ECB626"/>
<path d="M401.7 109.023C407.97 104.691 414.525 100.017 421.365 95.001C417.717 92.493 415.38 90.042 414.354 87.648C414.012 86.85 413.841 86.28 413.841 85.938C413.841 83.658 414.582 82.176 416.064 81.492C417.546 80.694 419.94 80.295 423.246 80.295C424.5 80.295 428.205 81.834 434.361 84.912C440.517 87.99 444.393 89.529 445.989 89.529C447.699 89.529 450.036 89.073 453 88.161C455.964 87.135 458.301 86.622 460.011 86.622C461.835 86.622 463.146 87.021 463.944 87.819C466.794 91.581 468.219 93.861 468.219 94.659C468.219 95.457 467.82 96.141 467.022 96.711C466.338 97.167 464.001 98.763 460.011 101.499C456.135 104.235 452.316 107.028 448.554 109.878C444.792 112.728 441.258 115.92 437.952 119.454C434.646 122.988 432.993 125.838 432.993 128.004C432.993 128.346 433.278 128.517 433.848 128.517C440.004 128.517 460.752 116.034 496.092 91.068C496.89 91.068 497.289 91.809 497.289 93.291C497.289 94.659 492.786 99.561 483.78 107.997C474.774 116.319 464.571 124.527 453.171 132.621C441.885 140.601 433.677 144.591 428.547 144.591C420.567 144.591 416.577 140.601 416.577 132.621C416.577 128.289 418.002 124.128 420.852 120.138C423.816 116.034 429.972 110.562 439.32 103.722C437.382 103.722 434.76 103.266 431.454 102.354C428.148 101.328 426.039 100.131 425.127 98.763C422.163 101.385 417.033 105.774 409.737 111.93C408.027 113.184 405.804 113.811 403.068 113.811C400.332 113.811 398.964 113.412 398.964 112.614C398.964 111.702 399.876 110.505 401.7 109.023Z" fill="url(#paint10_linear)"/>
<path d="M401.7 109.023C407.97 104.691 414.525 100.017 421.365 95.001C417.717 92.493 415.38 90.042 414.354 87.648C414.012 86.85 413.841 86.28 413.841 85.938C413.841 83.658 414.582 82.176 416.064 81.492C417.546 80.694 419.94 80.295 423.246 80.295C424.5 80.295 428.205 81.834 434.361 84.912C440.517 87.99 444.393 89.529 445.989 89.529C447.699 89.529 450.036 89.073 453 88.161C455.964 87.135 458.301 86.622 460.011 86.622C461.835 86.622 463.146 87.021 463.944 87.819C466.794 91.581 468.219 93.861 468.219 94.659C468.219 95.457 467.82 96.141 467.022 96.711C466.338 97.167 464.001 98.763 460.011 101.499C456.135 104.235 452.316 107.028 448.554 109.878C444.792 112.728 441.258 115.92 437.952 119.454C434.646 122.988 432.993 125.838 432.993 128.004C432.993 128.346 433.278 128.517 433.848 128.517C440.004 128.517 460.752 116.034 496.092 91.068C496.89 91.068 497.289 91.809 497.289 93.291C497.289 94.659 492.786 99.561 483.78 107.997C474.774 116.319 464.571 124.527 453.171 132.621C441.885 140.601 433.677 144.591 428.547 144.591C420.567 144.591 416.577 140.601 416.577 132.621C416.577 128.289 418.002 124.128 420.852 120.138C423.816 116.034 429.972 110.562 439.32 103.722C437.382 103.722 434.76 103.266 431.454 102.354C428.148 101.328 426.039 100.131 425.127 98.763C422.163 101.385 417.033 105.774 409.737 111.93C408.027 113.184 405.804 113.811 403.068 113.811C400.332 113.811 398.964 113.412 398.964 112.614C398.964 111.702 399.876 110.505 401.7 109.023Z" fill="url(#paint11_radial)" fill-opacity="0.6"/>
<path d="M531.154 85.767C536.512 86.337 539.191 87.534 539.191 89.358C539.191 90.156 538.735 91.068 537.823 92.094C521.749 109.992 503.281 132.792 482.419 160.494C476.377 168.702 470.221 176.454 463.951 183.75C457.681 191.046 451.81 196.347 446.338 199.653C440.866 203.073 435.166 204.783 429.238 204.783C426.274 204.783 423.652 203.985 421.372 202.389C419.092 200.793 417.952 198.627 417.952 195.891C417.952 189.507 421.03 182.895 427.186 176.055C433.342 169.215 440.239 163.629 447.877 159.297C455.515 155.079 462.127 152.628 467.713 151.944L471.304 152.457C472.444 152.343 476.605 147.954 483.787 139.29C491.083 130.626 494.731 126.066 494.731 125.61C494.845 125.04 494.788 124.755 494.56 124.755L491.311 127.32C482.761 135.3 476.092 139.29 471.304 139.29C468.226 139.29 466.687 137.124 466.687 132.792C466.687 126.978 471.418 117.801 480.88 105.261C490.342 92.721 497.296 86.451 501.742 86.451C502.084 86.451 502.483 86.565 502.939 86.793C506.131 87.591 507.727 88.731 507.727 90.213C507.727 90.783 507.556 91.239 507.214 91.581C506.986 91.809 505.846 92.892 503.794 94.83C501.856 96.768 499.918 98.82 497.98 100.986C496.042 103.038 493.99 105.318 491.824 107.826C486.922 113.526 484.471 117.801 484.471 120.651C484.471 121.335 484.813 121.677 485.497 121.677C486.295 121.677 487.72 121.05 489.772 119.796C505.96 108.738 518.614 98.193 527.734 88.161C528.532 86.565 529.672 85.767 531.154 85.767ZM426.844 197.259C430.834 196.005 436.192 192.072 442.918 185.46C449.644 178.962 455.401 172.806 460.189 166.992L467.371 158.1C468.055 157.188 468.397 156.618 468.397 156.39C468.397 156.162 468.226 156.048 467.884 156.048C464.236 156.048 459.049 158.841 452.323 164.427C445.483 170.013 439.441 176.112 434.197 182.724C428.839 189.336 426.16 194.01 426.16 196.746C426.16 197.088 426.388 197.259 426.844 197.259Z" fill="#ECB626"/>
<path d="M531.154 85.767C536.512 86.337 539.191 87.534 539.191 89.358C539.191 90.156 538.735 91.068 537.823 92.094C521.749 109.992 503.281 132.792 482.419 160.494C476.377 168.702 470.221 176.454 463.951 183.75C457.681 191.046 451.81 196.347 446.338 199.653C440.866 203.073 435.166 204.783 429.238 204.783C426.274 204.783 423.652 203.985 421.372 202.389C419.092 200.793 417.952 198.627 417.952 195.891C417.952 189.507 421.03 182.895 427.186 176.055C433.342 169.215 440.239 163.629 447.877 159.297C455.515 155.079 462.127 152.628 467.713 151.944L471.304 152.457C472.444 152.343 476.605 147.954 483.787 139.29C491.083 130.626 494.731 126.066 494.731 125.61C494.845 125.04 494.788 124.755 494.56 124.755L491.311 127.32C482.761 135.3 476.092 139.29 471.304 139.29C468.226 139.29 466.687 137.124 466.687 132.792C466.687 126.978 471.418 117.801 480.88 105.261C490.342 92.721 497.296 86.451 501.742 86.451C502.084 86.451 502.483 86.565 502.939 86.793C506.131 87.591 507.727 88.731 507.727 90.213C507.727 90.783 507.556 91.239 507.214 91.581C506.986 91.809 505.846 92.892 503.794 94.83C501.856 96.768 499.918 98.82 497.98 100.986C496.042 103.038 493.99 105.318 491.824 107.826C486.922 113.526 484.471 117.801 484.471 120.651C484.471 121.335 484.813 121.677 485.497 121.677C486.295 121.677 487.72 121.05 489.772 119.796C505.96 108.738 518.614 98.193 527.734 88.161C528.532 86.565 529.672 85.767 531.154 85.767ZM426.844 197.259C430.834 196.005 436.192 192.072 442.918 185.46C449.644 178.962 455.401 172.806 460.189 166.992L467.371 158.1C468.055 157.188 468.397 156.618 468.397 156.39C468.397 156.162 468.226 156.048 467.884 156.048C464.236 156.048 459.049 158.841 452.323 164.427C445.483 170.013 439.441 176.112 434.197 182.724C428.839 189.336 426.16 194.01 426.16 196.746C426.16 197.088 426.388 197.259 426.844 197.259Z" fill="url(#paint12_linear)"/>
<path d="M531.154 85.767C536.512 86.337 539.191 87.534 539.191 89.358C539.191 90.156 538.735 91.068 537.823 92.094C521.749 109.992 503.281 132.792 482.419 160.494C476.377 168.702 470.221 176.454 463.951 183.75C457.681 191.046 451.81 196.347 446.338 199.653C440.866 203.073 435.166 204.783 429.238 204.783C426.274 204.783 423.652 203.985 421.372 202.389C419.092 200.793 417.952 198.627 417.952 195.891C417.952 189.507 421.03 182.895 427.186 176.055C433.342 169.215 440.239 163.629 447.877 159.297C455.515 155.079 462.127 152.628 467.713 151.944L471.304 152.457C472.444 152.343 476.605 147.954 483.787 139.29C491.083 130.626 494.731 126.066 494.731 125.61C494.845 125.04 494.788 124.755 494.56 124.755L491.311 127.32C482.761 135.3 476.092 139.29 471.304 139.29C468.226 139.29 466.687 137.124 466.687 132.792C466.687 126.978 471.418 117.801 480.88 105.261C490.342 92.721 497.296 86.451 501.742 86.451C502.084 86.451 502.483 86.565 502.939 86.793C506.131 87.591 507.727 88.731 507.727 90.213C507.727 90.783 507.556 91.239 507.214 91.581C506.986 91.809 505.846 92.892 503.794 94.83C501.856 96.768 499.918 98.82 497.98 100.986C496.042 103.038 493.99 105.318 491.824 107.826C486.922 113.526 484.471 117.801 484.471 120.651C484.471 121.335 484.813 121.677 485.497 121.677C486.295 121.677 487.72 121.05 489.772 119.796C505.96 108.738 518.614 98.193 527.734 88.161C528.532 86.565 529.672 85.767 531.154 85.767ZM426.844 197.259C430.834 196.005 436.192 192.072 442.918 185.46C449.644 178.962 455.401 172.806 460.189 166.992L467.371 158.1C468.055 157.188 468.397 156.618 468.397 156.39C468.397 156.162 468.226 156.048 467.884 156.048C464.236 156.048 459.049 158.841 452.323 164.427C445.483 170.013 439.441 176.112 434.197 182.724C428.839 189.336 426.16 194.01 426.16 196.746C426.16 197.088 426.388 197.259 426.844 197.259Z" fill="url(#paint13_radial)" fill-opacity="0.6"/>
<path d="M84.6841 120.4C94.5721 109.139 107.344 94.032 123 75.08C138.656 56.128 150.192 42.6693 157.608 34.704C165.024 26.7387 171.41 20.696 176.766 16.576C189.263 7.23733 201.967 2.56799 214.876 2.56799C217.76 2.56799 220.987 3.73533 224.558 6.07C228.266 8.40467 230.12 12.044 230.12 16.988C230.12 21.7947 225.519 29.2107 216.318 39.236C211.786 44.18 205.194 49.2613 196.542 54.48C188.027 59.5613 178.483 63.6813 167.908 66.84C163.925 67.5267 160.973 67.87 159.05 67.87C157.265 67.87 156.372 67.664 156.372 67.252C156.372 66.84 156.853 66.3593 157.814 65.81C169.35 59.4927 182.259 49.948 196.542 37.176C210.962 24.404 218.172 16.0267 218.172 12.044C218.172 11.4947 217.76 11.22 216.936 11.22C216.249 11.22 215.425 11.3573 214.464 11.632C213.64 11.9067 212.679 12.1813 211.58 12.456C210.481 12.7307 208.147 13.898 204.576 15.958C201.005 17.8807 197.229 20.3527 193.246 23.374C189.401 26.258 184.525 30.79 178.62 36.97C172.852 43.0127 167.015 50.0167 161.11 57.982C138.45 89.706 123.755 109.207 117.026 116.486C115.927 117.722 114.554 119.233 112.906 121.018C116.339 121.43 121.489 121.911 128.356 122.46C135.223 123.009 139.823 123.49 142.158 123.902C144.63 124.177 148.201 124.863 152.87 125.962C157.539 127.061 161.247 128.434 163.994 130.082C171.135 134.477 178.002 140.451 184.594 148.004C186.105 149.652 186.86 150.751 186.86 151.3C186.86 151.849 186.654 152.124 186.242 152.124C185.555 152.124 184.663 151.849 183.564 151.3C181.504 150.751 178.483 149.995 174.5 149.034C170.655 148.073 162.277 146.837 149.368 145.326C136.459 143.815 124.579 143.06 113.73 143.06C103.018 143.06 95.1901 143.129 90.2461 143.266C82.9675 150.133 72.7361 156.519 59.5521 162.424C46.3681 168.329 36.4801 171.282 29.8881 171.282C23.1588 171.282 16.8415 169.497 10.9361 165.926C5.03079 162.493 2.07812 157.823 2.07812 151.918C2.07812 147.661 5.30546 142.991 11.7601 137.91C26.5921 126.237 50.9001 120.4 84.6841 120.4ZM13.4081 157.892C13.4081 159.265 15.0561 160.158 18.3521 160.57C22.6095 160.57 26.2488 160.295 29.2701 159.746C32.2915 159.334 36.7548 157.823 42.6601 155.214C48.4281 152.605 54.5395 148.759 60.9941 143.678C52.2048 143.678 42.1108 145.257 30.7121 148.416C19.1761 151.575 13.4081 154.733 13.4081 157.892Z" stroke="#AC7D00" stroke-width="4" mask="url(#path-1-outside-1)"/>
<path d="M178.011 133.476C181.659 133.476 186.162 131.082 191.52 126.294C196.878 121.506 199.671 118.2 199.899 116.376C198.531 115.236 197.049 113.184 195.453 110.22C193.971 107.142 193.173 105.603 193.059 105.603C189.525 108.909 186.39 112.728 183.654 117.06C179.322 124.356 177.156 129.372 177.156 132.108C177.156 133.02 177.441 133.476 178.011 133.476ZM214.947 91.581C213.807 91.581 211.413 93.348 207.765 96.882C204.231 100.416 202.464 102.867 202.464 104.235C202.464 104.577 202.806 105.261 203.49 106.287C204.174 107.313 204.687 107.826 205.029 107.826C206.967 107.826 209.133 105.489 211.527 100.815C214.035 96.141 215.289 93.462 215.289 92.778C215.289 91.98 215.175 91.581 214.947 91.581ZM215.289 113.64C218.481 113.64 223.44 111.702 230.166 107.826C237.006 103.95 242.991 100.074 248.121 96.198L255.816 90.213C256.842 91.011 257.355 91.98 257.355 93.12C257.355 94.26 256.842 95.286 255.816 96.198C237.006 113.64 222.756 122.361 213.066 122.361C212.382 122.361 211.356 122.247 209.988 122.019C197.106 136.953 186.048 144.42 176.814 144.42C170.658 143.508 166.782 141.342 165.186 137.922C164.274 136.212 163.818 134.046 163.818 131.424C163.818 123.9 168.15 114.951 176.814 104.577C185.478 94.089 196.365 86.394 209.475 81.492C210.615 81.492 211.47 81.777 212.04 82.347C212.61 82.803 213.123 83.088 213.579 83.202C214.035 83.202 214.605 82.974 215.289 82.518C216.087 81.948 217.113 81.663 218.367 81.663C219.621 81.549 220.932 82.233 222.3 83.715C224.124 85.197 225.036 87.021 225.036 89.187C225.036 95.571 221.787 103.722 215.289 113.64Z" stroke="#AC7D00" stroke-width="4" mask="url(#path-1-outside-1)"/>
<path d="M302.862 61.998L311.583 61.827C322.869 61.827 331.077 63.423 336.207 66.615C338.715 67.413 339.969 68.439 339.969 69.693C339.969 70.605 338.829 71.232 336.549 71.574C334.383 71.916 326.688 72.828 313.464 74.31C300.354 75.678 291.348 76.476 286.446 76.704C284.28 76.818 279.264 80.58 271.398 87.99C263.646 95.4 256.236 103.551 249.168 112.443C242.1 121.335 238.566 127.548 238.566 131.082C238.566 131.652 238.851 132.165 239.421 132.621C239.991 132.963 240.675 133.134 241.473 133.134C242.385 133.134 243.753 132.792 245.577 132.108C267.237 119.34 288.27 105.375 308.676 90.213C309.702 91.011 310.215 91.98 310.215 93.12C310.215 94.26 309.645 95.4 308.505 96.54C307.365 97.566 305.655 99.105 303.375 101.157C301.209 103.209 297.105 106.914 291.063 112.272C285.021 117.63 279.321 122.418 273.963 126.636C259.599 138.264 249.567 144.99 243.867 146.814C241.815 147.384 239.364 147.669 236.514 147.669C233.778 147.669 231.213 146.244 228.819 143.394C226.539 140.544 225.399 136.668 225.399 131.766C225.399 126.864 228.534 119.796 234.804 110.562C241.188 101.328 249.852 91.866 260.796 82.176C261.822 81.378 262.335 80.637 262.335 79.953C262.335 79.269 261.138 78.927 258.744 78.927L247.971 79.269C232.809 79.269 225 77.559 224.544 74.139C221.01 73.455 219.243 72.429 219.243 71.061C219.243 70.605 219.471 70.377 219.927 70.377C220.383 70.263 220.782 70.206 221.124 70.206C221.466 70.092 222.036 69.978 222.834 69.864C223.632 69.75 229.902 68.838 241.644 67.128C253.5 65.418 266.952 63.993 282 62.853L293.799 47.121C294.483 45.753 296.877 45.069 300.981 45.069C305.085 45.069 307.137 45.924 307.137 47.634C307.137 48.204 306.681 49.23 305.769 50.712L301.494 56.697C300.924 58.521 300.582 59.889 300.468 60.801C300.468 61.599 301.266 61.998 302.862 61.998Z" stroke="#AC7D00" stroke-width="4" mask="url(#path-1-outside-1)"/>
<path d="M356.467 61.998L365.188 61.827C376.474 61.827 384.682 63.423 389.812 66.615C392.32 67.413 393.574 68.439 393.574 69.693C393.574 70.605 392.434 71.232 390.154 71.574C387.988 71.916 380.293 72.828 367.069 74.31C353.959 75.678 344.953 76.476 340.051 76.704C337.885 76.818 332.869 80.58 325.003 87.99C317.251 95.4 309.841 103.551 302.773 112.443C295.705 121.335 292.171 127.548 292.171 131.082C292.171 131.652 292.456 132.165 293.026 132.621C293.596 132.963 294.28 133.134 295.078 133.134C295.99 133.134 297.358 132.792 299.182 132.108C320.842 119.34 341.875 105.375 362.281 90.213C363.307 91.011 363.82 91.98 363.82 93.12C363.82 94.26 363.25 95.4 362.11 96.54C360.97 97.566 359.26 99.105 356.98 101.157C354.814 103.209 350.71 106.914 344.668 112.272C338.626 117.63 332.926 122.418 327.568 126.636C313.204 138.264 303.172 144.99 297.472 146.814C295.42 147.384 292.969 147.669 290.119 147.669C287.383 147.669 284.818 146.244 282.424 143.394C280.144 140.544 279.004 136.668 279.004 131.766C279.004 126.864 282.139 119.796 288.409 110.562C294.793 101.328 303.457 91.866 314.401 82.176C315.427 81.378 315.94 80.637 315.94 79.953C315.94 79.269 314.743 78.927 312.349 78.927L301.576 79.269C286.414 79.269 278.605 77.559 278.149 74.139C274.615 73.455 272.848 72.429 272.848 71.061C272.848 70.605 273.076 70.377 273.532 70.377C273.988 70.263 274.387 70.206 274.729 70.206C275.071 70.092 275.641 69.978 276.439 69.864C277.237 69.75 283.507 68.838 295.249 67.128C307.105 65.418 320.557 63.993 335.605 62.853L347.404 47.121C348.088 45.753 350.482 45.069 354.586 45.069C358.69 45.069 360.742 45.924 360.742 47.634C360.742 48.204 360.286 49.23 359.374 50.712L355.099 56.697C354.529 58.521 354.187 59.889 354.073 60.801C354.073 61.599 354.871 61.998 356.467 61.998Z" stroke="#AC7D00" stroke-width="4" mask="url(#path-1-outside-1)"/>
<path d="M384.592 89.358C381.628 89.358 376.612 92.436 369.544 98.592C362.476 104.634 358.942 108.339 358.942 109.707C358.942 109.935 359.113 110.049 359.455 110.049C361.963 110.049 366.922 107.256 374.332 101.67C381.856 96.084 385.618 92.265 385.618 90.213C385.618 89.643 385.276 89.358 384.592 89.358ZM348.169 144.078C339.391 144.078 335.002 138.72 335.002 128.004C335.002 121.278 337.909 114.153 343.723 106.629C349.651 98.991 356.605 92.778 364.585 87.99C372.565 83.088 379.633 80.637 385.789 80.637C388.525 80.637 391.033 81.72 393.313 83.886C395.707 86.052 396.904 88.161 396.904 90.213C396.904 93.975 394.225 98.25 388.867 103.038C383.509 107.712 377.866 111.531 371.938 114.495C366.124 117.345 362.248 118.77 360.31 118.77C358.486 118.77 357.118 117.915 356.206 116.205C355.75 115.863 355.123 115.692 354.325 115.692C353.527 115.692 352.216 117.231 350.392 120.309C348.568 123.273 347.656 125.724 347.656 127.662C347.656 129.486 348.34 130.626 349.708 131.082C358.372 131.082 367.777 128.574 377.923 123.558C388.069 118.428 402.091 109.479 419.989 96.711C421.243 95.799 423.124 94.431 425.632 92.607C428.254 90.783 429.793 89.7 430.249 89.358C431.275 90.156 431.788 91.125 431.788 92.265C431.788 93.405 431.275 94.431 430.249 95.343C424.549 101.043 417.139 107.427 408.019 114.495C399.013 121.563 388.639 128.289 376.897 134.673C365.155 140.943 355.579 144.078 348.169 144.078Z" stroke="#AC7D00" stroke-width="4" mask="url(#path-1-outside-1)"/>
<path d="M401.7 109.023C407.97 104.691 414.525 100.017 421.365 95.001C417.717 92.493 415.38 90.042 414.354 87.648C414.012 86.85 413.841 86.28 413.841 85.938C413.841 83.658 414.582 82.176 416.064 81.492C417.546 80.694 419.94 80.295 423.246 80.295C424.5 80.295 428.205 81.834 434.361 84.912C440.517 87.99 444.393 89.529 445.989 89.529C447.699 89.529 450.036 89.073 453 88.161C455.964 87.135 458.301 86.622 460.011 86.622C461.835 86.622 463.146 87.021 463.944 87.819C466.794 91.581 468.219 93.861 468.219 94.659C468.219 95.457 467.82 96.141 467.022 96.711C466.338 97.167 464.001 98.763 460.011 101.499C456.135 104.235 452.316 107.028 448.554 109.878C444.792 112.728 441.258 115.92 437.952 119.454C434.646 122.988 432.993 125.838 432.993 128.004C432.993 128.346 433.278 128.517 433.848 128.517C440.004 128.517 460.752 116.034 496.092 91.068C496.89 91.068 497.289 91.809 497.289 93.291C497.289 94.659 492.786 99.561 483.78 107.997C474.774 116.319 464.571 124.527 453.171 132.621C441.885 140.601 433.677 144.591 428.547 144.591C420.567 144.591 416.577 140.601 416.577 132.621C416.577 128.289 418.002 124.128 420.852 120.138C423.816 116.034 429.972 110.562 439.32 103.722C437.382 103.722 434.76 103.266 431.454 102.354C428.148 101.328 426.039 100.131 425.127 98.763C422.163 101.385 417.033 105.774 409.737 111.93C408.027 113.184 405.804 113.811 403.068 113.811C400.332 113.811 398.964 113.412 398.964 112.614C398.964 111.702 399.876 110.505 401.7 109.023Z" stroke="#AC7D00" stroke-width="4" mask="url(#path-1-outside-1)"/>
<path d="M531.154 85.767C536.512 86.337 539.191 87.534 539.191 89.358C539.191 90.156 538.735 91.068 537.823 92.094C521.749 109.992 503.281 132.792 482.419 160.494C476.377 168.702 470.221 176.454 463.951 183.75C457.681 191.046 451.81 196.347 446.338 199.653C440.866 203.073 435.166 204.783 429.238 204.783C426.274 204.783 423.652 203.985 421.372 202.389C419.092 200.793 417.952 198.627 417.952 195.891C417.952 189.507 421.03 182.895 427.186 176.055C433.342 169.215 440.239 163.629 447.877 159.297C455.515 155.079 462.127 152.628 467.713 151.944L471.304 152.457C472.444 152.343 476.605 147.954 483.787 139.29C491.083 130.626 494.731 126.066 494.731 125.61C494.845 125.04 494.788 124.755 494.56 124.755L491.311 127.32C482.761 135.3 476.092 139.29 471.304 139.29C468.226 139.29 466.687 137.124 466.687 132.792C466.687 126.978 471.418 117.801 480.88 105.261C490.342 92.721 497.296 86.451 501.742 86.451C502.084 86.451 502.483 86.565 502.939 86.793C506.131 87.591 507.727 88.731 507.727 90.213C507.727 90.783 507.556 91.239 507.214 91.581C506.986 91.809 505.846 92.892 503.794 94.83C501.856 96.768 499.918 98.82 497.98 100.986C496.042 103.038 493.99 105.318 491.824 107.826C486.922 113.526 484.471 117.801 484.471 120.651C484.471 121.335 484.813 121.677 485.497 121.677C486.295 121.677 487.72 121.05 489.772 119.796C505.96 108.738 518.614 98.193 527.734 88.161C528.532 86.565 529.672 85.767 531.154 85.767ZM426.844 197.259C430.834 196.005 436.192 192.072 442.918 185.46C449.644 178.962 455.401 172.806 460.189 166.992L467.371 158.1C468.055 157.188 468.397 156.618 468.397 156.39C468.397 156.162 468.226 156.048 467.884 156.048C464.236 156.048 459.049 158.841 452.323 164.427C445.483 170.013 439.441 176.112 434.197 182.724C428.839 189.336 426.16 194.01 426.16 196.746C426.16 197.088 426.388 197.259 426.844 197.259Z" stroke="#AC7D00" stroke-width="4" mask="url(#path-1-outside-1)"/>
</g>
<g filter="url(#filter1_d)">
<rect x="68.002" y="130" width="116.89" height="35.6187" rx="5" fill="#FF36FF"/>
<rect x="68.002" y="130" width="116.89" height="35.6187" rx="5" fill="url(#paint14_radial)"/>
</g>
<path d="M82.1895 141.953C82.1999 141.891 82.2181 141.846 82.2441 141.82C82.2702 141.794 82.5332 141.758 83.0332 141.711C83.5332 141.664 84.2181 141.641 85.0879 141.641C85.9629 141.641 86.6348 141.893 87.1035 142.398C87.5723 142.898 87.8066 143.586 87.8066 144.461C87.8066 146.112 87.6217 148.013 87.252 150.164C87.054 151.305 86.7337 152.154 86.291 152.711C85.8848 153.221 85.2493 153.557 84.3848 153.719C83.9941 153.786 83.5176 153.831 82.9551 153.851L81.0098 153.922C80.8952 153.917 80.8379 153.867 80.8379 153.773L82.1895 141.953ZM83.9785 143.461L83.0254 151.969C83.8014 151.901 84.3379 151.75 84.6348 151.516C84.9368 151.281 85.1478 150.836 85.2676 150.18C85.3874 149.523 85.5046 148.627 85.6191 147.492C85.7389 146.357 85.7988 145.427 85.7988 144.703C85.7988 144.276 85.6947 143.958 85.4863 143.75C85.278 143.542 84.9941 143.437 84.6348 143.437C84.2806 143.437 84.0618 143.445 83.9785 143.461Z" fill="black"/>
<path d="M94.0879 148.547L91.6582 148.641L91.291 151.844L94.2832 151.742C94.4186 151.747 94.4863 151.815 94.4863 151.945L94.2832 153.562C94.2728 153.672 94.2051 153.739 94.0801 153.766L89.2754 153.922C89.1608 153.922 89.1035 153.872 89.1035 153.773L90.4551 141.953C90.4759 141.844 90.5436 141.784 90.6582 141.773L94.9395 141.625C95.0697 141.641 95.1348 141.711 95.1348 141.836L94.9395 143.453C94.9238 143.583 94.8561 143.654 94.7363 143.664L92.2207 143.734L91.8848 146.641L94.291 146.555C94.4264 146.56 94.4941 146.627 94.4941 146.758L94.291 148.351C94.2702 148.471 94.2025 148.536 94.0879 148.547Z" fill="black"/>
<path d="M101.205 153.539C101.195 153.601 101.176 153.646 101.15 153.672C101.124 153.698 100.869 153.755 100.385 153.844C99.9004 153.932 99.4108 153.976 98.916 153.976C98.1035 153.976 97.4811 153.713 97.0488 153.187C96.6165 152.661 96.4004 151.945 96.4004 151.039C96.4004 149.43 96.5931 147.56 96.9785 145.43C97.1816 144.284 97.4316 143.479 97.7285 143.016C98.041 142.531 98.416 142.193 98.8535 142C99.4004 141.76 99.9837 141.641 100.604 141.641C101.229 141.641 101.645 141.659 101.854 141.695C102.067 141.726 102.187 141.745 102.213 141.75C102.281 141.771 102.314 141.836 102.314 141.945L102.135 143.398C102.114 143.534 102.062 143.601 101.979 143.601C101.895 143.601 101.702 143.581 101.4 143.539C101.098 143.492 100.854 143.469 100.666 143.469C100.166 143.469 99.7858 143.596 99.5254 143.851C99.265 144.101 99.0697 144.586 98.9395 145.305C98.8145 146.018 98.6921 146.979 98.5723 148.187C98.4525 149.391 98.3926 150.312 98.3926 150.953C98.3926 151.708 98.7259 152.086 99.3926 152.086C99.5853 152.086 99.9212 152.055 100.4 151.992C100.88 151.924 101.153 151.891 101.221 151.891C101.33 151.891 101.385 151.956 101.385 152.086L101.205 153.539Z" fill="black"/>
<path d="M107.994 148.547L105.564 148.641L105.197 151.844L108.189 151.742C108.325 151.747 108.393 151.815 108.393 151.945L108.189 153.562C108.179 153.672 108.111 153.739 107.986 153.766L103.182 153.922C103.067 153.922 103.01 153.872 103.01 153.773L104.361 141.953C104.382 141.844 104.45 141.784 104.564 141.773L108.846 141.625C108.976 141.641 109.041 141.711 109.041 141.836L108.846 143.453C108.83 143.583 108.762 143.654 108.643 143.664L106.127 143.734L105.791 146.641L108.197 146.555C108.333 146.56 108.4 146.627 108.4 146.758L108.197 148.351C108.176 148.471 108.109 148.536 107.994 148.547Z" fill="black"/>
<path d="M117.541 141.875L116.197 153.641C116.176 153.76 116.109 153.825 115.994 153.836L114.447 153.922C114.359 153.922 114.307 153.872 114.291 153.773L112.65 145.43L112.072 153.672C112.067 153.797 111.999 153.862 111.869 153.867L110.26 153.922C110.145 153.922 110.088 153.872 110.088 153.773L111.439 141.953C111.46 141.844 111.528 141.784 111.643 141.773L113.229 141.687C113.301 141.687 113.348 141.703 113.369 141.734C113.395 141.76 113.416 141.807 113.432 141.875L115.018 149.758L115.564 141.953C115.57 141.838 115.64 141.779 115.775 141.773L117.33 141.687C117.471 141.687 117.541 141.75 117.541 141.875Z" fill="black"/>
<path d="M119.307 141.805L124.369 141.625C124.489 141.63 124.549 141.695 124.549 141.82L124.346 143.422C124.335 143.5 124.317 143.555 124.291 143.586C124.27 143.617 124.223 143.635 124.15 143.641L122.635 143.695L121.494 153.672C121.479 153.797 121.411 153.862 121.291 153.867L119.666 153.922C119.562 153.922 119.51 153.872 119.51 153.773L120.658 143.758L119.104 143.805C118.973 143.799 118.908 143.739 118.908 143.625L119.104 142C119.109 141.875 119.176 141.81 119.307 141.805Z" fill="black"/>
<path d="M131.408 153.703C131.408 153.807 131.338 153.859 131.197 153.859L129.439 153.922C129.361 153.917 129.304 153.867 129.268 153.773L127.307 148.805L126.76 153.672C126.744 153.797 126.679 153.862 126.564 153.867L124.932 153.922C124.817 153.911 124.76 153.862 124.76 153.773L126.111 142.016C126.122 141.922 126.145 141.859 126.182 141.828C126.218 141.792 126.494 141.752 127.01 141.711C127.525 141.664 128.213 141.641 129.072 141.641C129.932 141.641 130.593 141.87 131.057 142.328C131.525 142.781 131.76 143.367 131.76 144.086C131.76 144.805 131.674 145.44 131.502 145.992C131.33 146.539 131.046 147.031 130.65 147.469C130.255 147.906 129.76 148.232 129.166 148.445L131.385 153.609C131.4 153.641 131.408 153.672 131.408 153.703ZM127.908 143.461L127.471 147.344C128.434 147.286 129.098 146.849 129.463 146.031C129.661 145.583 129.76 145.13 129.76 144.672C129.76 144.208 129.663 143.885 129.471 143.703C129.283 143.516 129.01 143.422 128.65 143.422C128.291 143.422 128.044 143.435 127.908 143.461Z" fill="black"/>
<path d="M137.729 141.898L138.643 153.664C138.643 153.784 138.575 153.849 138.439 153.859L136.807 153.922C136.697 153.922 136.643 153.872 136.643 153.773L136.525 151.195L134.752 151.266L134.166 153.672C134.15 153.745 134.13 153.794 134.104 153.82C134.077 153.846 134.031 153.862 133.963 153.867L132.346 153.922C132.242 153.922 132.189 153.872 132.189 153.773L135.619 141.953C135.656 141.838 135.726 141.779 135.83 141.773L137.549 141.711C137.658 141.716 137.718 141.779 137.729 141.898ZM136.252 145.117L135.158 149.601L136.455 149.555L136.252 145.117Z" fill="black"/>
<path d="M143.658 141.906L142.541 151.836L145.533 151.719C145.669 151.724 145.736 151.792 145.736 151.922L145.533 153.539C145.518 153.674 145.45 153.745 145.33 153.75L140.518 153.922C140.408 153.922 140.354 153.872 140.354 153.773L141.689 141.953C141.7 141.891 141.716 141.846 141.736 141.82C141.762 141.794 141.812 141.779 141.885 141.773L143.455 141.719C143.591 141.724 143.658 141.786 143.658 141.906Z" fill="black"/>
<path d="M150.596 141.906L149.26 153.672C149.244 153.797 149.176 153.862 149.057 153.867L147.447 153.922C147.333 153.922 147.275 153.872 147.275 153.773L148.627 141.953C148.648 141.844 148.716 141.784 148.83 141.773L150.393 141.719C150.528 141.724 150.596 141.786 150.596 141.906Z" fill="black"/>
<path d="M152.861 141.773L157.611 141.594C157.736 141.604 157.799 141.674 157.799 141.805L153.916 151.82L156.455 151.734C156.58 151.745 156.643 151.81 156.643 151.93L156.455 153.555C156.434 153.674 156.367 153.739 156.252 153.75L151.26 153.922C151.145 153.922 151.088 153.872 151.088 153.773L155.002 143.695L152.658 143.773C152.528 143.768 152.463 143.711 152.463 143.601L152.658 141.953C152.674 141.844 152.742 141.784 152.861 141.773Z" fill="black"/>
<path d="M163.416 148.547L160.986 148.641L160.619 151.844L163.611 151.742C163.747 151.747 163.814 151.815 163.814 151.945L163.611 153.562C163.601 153.672 163.533 153.739 163.408 153.766L158.604 153.922C158.489 153.922 158.432 153.872 158.432 153.773L159.783 141.953C159.804 141.844 159.872 141.784 159.986 141.773L164.268 141.625C164.398 141.641 164.463 141.711 164.463 141.836L164.268 143.453C164.252 143.583 164.184 143.654 164.064 143.664L161.549 143.734L161.213 146.641L163.619 146.555C163.755 146.56 163.822 146.627 163.822 146.758L163.619 148.351C163.598 148.471 163.531 148.536 163.416 148.547Z" fill="black"/>
<path d="M166.861 141.953C166.872 141.891 166.89 141.846 166.916 141.82C166.942 141.794 167.205 141.758 167.705 141.711C168.205 141.664 168.89 141.641 169.76 141.641C170.635 141.641 171.307 141.893 171.775 142.398C172.244 142.898 172.479 143.586 172.479 144.461C172.479 146.112 172.294 148.013 171.924 150.164C171.726 151.305 171.406 152.154 170.963 152.711C170.557 153.221 169.921 153.557 169.057 153.719C168.666 153.786 168.189 153.831 167.627 153.851L165.682 153.922C165.567 153.917 165.51 153.867 165.51 153.773L166.861 141.953ZM168.65 143.461L167.697 151.969C168.473 151.901 169.01 151.75 169.307 151.516C169.609 151.281 169.82 150.836 169.939 150.18C170.059 149.523 170.176 148.627 170.291 147.492C170.411 146.357 170.471 145.427 170.471 144.703C170.471 144.276 170.367 143.958 170.158 143.75C169.95 143.542 169.666 143.437 169.307 143.437C168.952 143.437 168.734 143.445 168.65 143.461Z" fill="black"/>
<rect x="68.002" y="130" width="116.89" height="17.4129" rx="5" fill="white" fill-opacity="0.47"/>
<defs>
<filter id="filter0_d" x="0.078125" y="0.567993" width="541.113" height="209.215" filterUnits="userSpaceOnUse" color-interpolation-filters="sRGB">
<feFlood flood-opacity="0" result="BackgroundImageFix"/>
<feColorMatrix in="SourceAlpha" type="matrix" values="0 0 0 0 0 0 0 0 0 0 0 0 0 0 0 0 0 0 127 0" result="hardAlpha"/>
<feOffset dy="3"/>
<feComposite in2="hardAlpha" operator="out"/>
<feColorMatrix type="matrix" values="0 0 0 0 0.47451 0 0 0 0 0.321569 0 0 0 0 0.176471 0 0 0 1 0"/>
<feBlend mode="normal" in2="BackgroundImageFix" result="effect1_dropShadow"/>
<feBlend mode="normal" in="SourceGraphic" in2="effect1_dropShadow" result="shape"/>
</filter>
<filter id="filter1_d" x="64.002" y="130" width="124.89" height="43.6187" filterUnits="userSpaceOnUse" color-interpolation-filters="sRGB">
<feFlood flood-opacity="0" result="BackgroundImageFix"/>
<feColorMatrix in="SourceAlpha" type="matrix" values="0 0 0 0 0 0 0 0 0 0 0 0 0 0 0 0 0 0 127 0" result="hardAlpha"/>
<feOffset dy="4"/>
<feGaussianBlur stdDeviation="2"/>
<feComposite in2="hardAlpha" operator="out"/>
<feColorMatrix type="matrix" values="0 0 0 0 0 0 0 0 0 0 0 0 0 0 0 0 0 0 0.25 0"/>
<feBlend mode="normal" in2="BackgroundImageFix" result="effect1_dropShadow"/>
<feBlend mode="normal" in="SourceGraphic" in2="effect1_dropShadow" result="shape"/>
</filter>
<linearGradient id="paint0_linear" x1="323" y1="201" x2="323" y2="-1.14784e-06" gradientUnits="userSpaceOnUse">
<stop stop-color="#D1A11F"/>
<stop offset="0.177083" stop-color="#FFDC81"/>
<stop offset="0.260417" stop-color="#F1B209"/>
<stop offset="0.369792" stop-color="#FFB900"/>
<stop offset="0.494792" stop-color="#FFF280"/>
<stop offset="0.609375" stop-color="#ECB626"/>
<stop offset="0.760417" stop-color="#FFD700"/>
<stop offset="0.875" stop-color="#FDFF9D"/>
<stop offset="1" stop-color="#ECB526"/>
</linearGradient>
<radialGradient id="paint1_radial" cx="0" cy="0" r="1" gradientUnits="userSpaceOnUse" gradientTransform="translate(163.5 52) rotate(20.0397) scale(259.725 606.657)">
<stop stop-color="#FFF6C6"/>
<stop offset="1" stop-color="#FDDA7D" stop-opacity="0"/>
</radialGradient>
<linearGradient id="paint2_linear" x1="323" y1="201" x2="323" y2="-1.14784e-06" gradientUnits="userSpaceOnUse">
<stop stop-color="#D1A11F"/>
<stop offset="0.177083" stop-color="#FFDC81"/>
<stop offset="0.260417" stop-color="#F1B209"/>
<stop offset="0.369792" stop-color="#FFB900"/>
<stop offset="0.494792" stop-color="#FFF280"/>
<stop offset="0.609375" stop-color="#ECB626"/>
<stop offset="0.760417" stop-color="#FFD700"/>
<stop offset="0.875" stop-color="#FDFF9D"/>
<stop offset="1" stop-color="#ECB526"/>
</linearGradient>
<radialGradient id="paint3_radial" cx="0" cy="0" r="1" gradientUnits="userSpaceOnUse" gradientTransform="translate(163.5 52) rotate(20.0397) scale(259.725 606.657)">
<stop stop-color="#FFF6C6"/>
<stop offset="1" stop-color="#FDDA7D" stop-opacity="0"/>
</radialGradient>
<linearGradient id="paint4_linear" x1="323" y1="201" x2="323" y2="-1.14784e-06" gradientUnits="userSpaceOnUse">
<stop stop-color="#D1A11F"/>
<stop offset="0.177083" stop-color="#FFDC81"/>
<stop offset="0.260417" stop-color="#F1B209"/>
<stop offset="0.369792" stop-color="#FFB900"/>
<stop offset="0.494792" stop-color="#FFF280"/>
<stop offset="0.609375" stop-color="#ECB626"/>
<stop offset="0.760417" stop-color="#FFD700"/>
<stop offset="0.875" stop-color="#FDFF9D"/>
<stop offset="1" stop-color="#ECB526"/>
</linearGradient>
<radialGradient id="paint5_radial" cx="0" cy="0" r="1" gradientUnits="userSpaceOnUse" gradientTransform="translate(163.5 52) rotate(20.0397) scale(259.725 606.657)">
<stop stop-color="#FFF6C6"/>
<stop offset="1" stop-color="#FDDA7D" stop-opacity="0"/>
</radialGradient>
<linearGradient id="paint6_linear" x1="323" y1="201" x2="323" y2="-1.14784e-06" gradientUnits="userSpaceOnUse">
<stop stop-color="#D1A11F"/>
<stop offset="0.177083" stop-color="#FFDC81"/>
<stop offset="0.260417" stop-color="#F1B209"/>
<stop offset="0.369792" stop-color="#FFB900"/>
<stop offset="0.494792" stop-color="#FFF280"/>
<stop offset="0.609375" stop-color="#ECB626"/>
<stop offset="0.760417" stop-color="#FFD700"/>
<stop offset="0.875" stop-color="#FDFF9D"/>
<stop offset="1" stop-color="#ECB526"/>
</linearGradient>
<radialGradient id="paint7_radial" cx="0" cy="0" r="1" gradientUnits="userSpaceOnUse" gradientTransform="translate(163.5 52) rotate(20.0397) scale(259.725 606.657)">
<stop stop-color="#FFF6C6"/>
<stop offset="1" stop-color="#FDDA7D" stop-opacity="0"/>
</radialGradient>
<linearGradient id="paint8_linear" x1="323" y1="201" x2="323" y2="-1.14784e-06" gradientUnits="userSpaceOnUse">
<stop stop-color="#D1A11F"/>
<stop offset="0.177083" stop-color="#FFDC81"/>
<stop offset="0.260417" stop-color="#F1B209"/>
<stop offset="0.369792" stop-color="#FFB900"/>
<stop offset="0.494792" stop-color="#FFF280"/>
<stop offset="0.609375" stop-color="#ECB626"/>
<stop offset="0.760417" stop-color="#FFD700"/>
<stop offset="0.875" stop-color="#FDFF9D"/>
<stop offset="1" stop-color="#ECB526"/>
</linearGradient>
<radialGradient id="paint9_radial" cx="0" cy="0" r="1" gradientUnits="userSpaceOnUse" gradientTransform="translate(163.5 52) rotate(20.0397) scale(259.725 606.657)">
<stop stop-color="#FFF6C6"/>
<stop offset="1" stop-color="#FDDA7D" stop-opacity="0"/>
</radialGradient>
<linearGradient id="paint10_linear" x1="323" y1="201" x2="323" y2="-1.14784e-06" gradientUnits="userSpaceOnUse">
<stop stop-color="#D1A11F"/>
<stop offset="0.177083" stop-color="#FFDC81"/>
<stop offset="0.260417" stop-color="#F1B209"/>
<stop offset="0.369792" stop-color="#FFB900"/>
<stop offset="0.494792" stop-color="#FFF280"/>
<stop offset="0.609375" stop-color="#ECB626"/>
<stop offset="0.760417" stop-color="#FFD700"/>
<stop offset="0.875" stop-color="#FDFF9D"/>
<stop offset="1" stop-color="#ECB526"/>
</linearGradient>
<radialGradient id="paint11_radial" cx="0" cy="0" r="1" gradientUnits="userSpaceOnUse" gradientTransform="translate(163.5 52) rotate(20.0397) scale(259.725 606.657)">
<stop stop-color="#FFF6C6"/>
<stop offset="1" stop-color="#FDDA7D" stop-opacity="0"/>
</radialGradient>
<linearGradient id="paint12_linear" x1="323" y1="201" x2="323" y2="-1.14784e-06" gradientUnits="userSpaceOnUse">
<stop stop-color="#D1A11F"/>
<stop offset="0.177083" stop-color="#FFDC81"/>
<stop offset="0.260417" stop-color="#F1B209"/>
<stop offset="0.369792" stop-color="#FFB900"/>
<stop offset="0.494792" stop-color="#FFF280"/>
<stop offset="0.609375" stop-color="#ECB626"/>
<stop offset="0.760417" stop-color="#FFD700"/>
<stop offset="0.875" stop-color="#FDFF9D"/>
<stop offset="1" stop-color="#ECB526"/>
</linearGradient>
<radialGradient id="paint13_radial" cx="0" cy="0" r="1" gradientUnits="userSpaceOnUse" gradientTransform="translate(163.5 52) rotate(20.0397) scale(259.725 606.657)">
<stop stop-color="#FFF6C6"/>
<stop offset="1" stop-color="#FDDA7D" stop-opacity="0"/>
</radialGradient>
<radialGradient id="paint14_radial" cx="0" cy="0" r="1" gradientUnits="userSpaceOnUse" gradientTransform="translate(126.447 147.809) rotate(90) scale(17.8094 58.4448)">
<stop stop-color="#FFDAFF"/>
<stop offset="1" stop-color="white" stop-opacity="0"/>
</radialGradient>
</defs>
</svg>
