<svg width="1440" height="765" viewBox="0 0 1440 765" fill="none" xmlns="http://www.w3.org/2000/svg">
<path d="M783.464 -676H718.999H654.533L718.999 267.834L783.464 -676Z" fill="white" fill-opacity="0.08"/>
<path d="M783.464 -676H718.999H654.533L718.999 267.834L783.464 -676Z" fill="url(#paint0_radial)"/>
<path d="M654.533 1236H718.999H783.464L718.999 292.164L654.533 1236Z" fill="white" fill-opacity="0.08"/>
<path d="M654.533 1236H718.999H783.464L718.999 292.164L654.533 1236Z" fill="url(#paint1_radial)"/>
<path d="M533.838 -660.11L471.571 -643.427L409.303 -626.739L715.853 268.246L533.838 -660.11Z" fill="white" fill-opacity="0.08"/>
<path d="M533.838 -660.11L471.571 -643.427L409.303 -626.739L715.853 268.246L533.838 -660.11Z" fill="url(#paint2_radial)"/>
<path d="M904.161 1220.11L966.428 1203.42L1028.7 1186.74L722.146 291.748L904.161 1220.11Z" fill="white" fill-opacity="0.08"/>
<path d="M904.161 1220.11L966.428 1203.42L1028.7 1186.74L722.146 291.748L904.161 1220.11Z" fill="url(#paint3_radial)"/>
<path d="M296.829 -580.156L241.003 -547.921L185.173 -515.69L712.916 269.465L296.829 -580.156Z" fill="white" fill-opacity="0.08"/>
<path d="M296.829 -580.156L241.003 -547.921L185.173 -515.69L712.916 269.465L296.829 -580.156Z" fill="url(#paint4_radial)"/>
<path d="M1141.17 1140.15L1197 1107.92L1252.83 1075.68L725.084 290.534L1141.17 1140.15Z" fill="white" fill-opacity="0.08"/>
<path d="M1141.17 1140.15L1197 1107.92L1252.83 1075.68L725.084 290.534L1141.17 1140.15Z" fill="url(#paint5_radial)"/>
<path d="M88.5902 -441.581L43.0056 -395.996L-2.5791 -350.412L710.395 271.398L88.5902 -441.581Z" fill="white" fill-opacity="0.08"/>
<path d="M88.5902 -441.581L43.0056 -395.996L-2.5791 -350.412L710.395 271.398L88.5902 -441.581Z" fill="url(#paint6_radial)"/>
<path d="M1349.41 1001.57L1394.99 955.99L1440.58 910.405L727.603 288.6L1349.41 1001.57Z" fill="white" fill-opacity="0.08"/>
<path d="M1349.41 1001.57L1394.99 955.99L1440.58 910.405L727.603 288.6L1349.41 1001.57Z" fill="url(#paint7_radial)"/>
<path d="M-76.6857 -253.828L-108.921 -198.003L-141.151 -142.173L708.464 273.914L-76.6857 -253.828Z" fill="white" fill-opacity="0.08"/>
<path d="M-76.6857 -253.828L-108.921 -198.003L-141.151 -142.173L708.464 273.914L-76.6857 -253.828Z" fill="url(#paint8_radial)"/>
<path d="M1514.69 813.827L1546.92 757.996L1579.16 702.171L729.536 286.079L1514.69 813.827Z" fill="white" fill-opacity="0.08"/>
<path d="M1514.69 813.827L1546.92 757.996L1579.16 702.171L729.536 286.079L1514.69 813.827Z" fill="url(#paint9_radial)"/>
<path d="M-187.739 -29.7041L-204.421 32.5684L-221.109 94.8361L707.251 276.851L-187.739 -29.7041Z" fill="white" fill-opacity="0.08"/>
<path d="M-187.739 -29.7041L-204.421 32.5684L-221.109 94.8361L707.251 276.851L-187.739 -29.7041Z" fill="url(#paint10_radial)"/>
<path d="M1625.74 589.697L1642.43 527.43L1659.11 465.157L730.753 283.147L1625.74 589.697Z" fill="white" fill-opacity="0.08"/>
<path d="M1625.74 589.697L1642.43 527.43L1659.11 465.157L730.753 283.147L1625.74 589.697Z" fill="url(#paint11_radial)"/>
<path d="M-237 215.534V279.999V344.465L706.835 279.999L-237 215.534Z" fill="white" fill-opacity="0.08"/>
<path d="M-237 215.534V279.999V344.465L706.835 279.999L-237 215.534Z" fill="url(#paint12_radial)"/>
<path d="M731.166 279.999L1675 344.465V279.999V215.534L731.166 279.999Z" fill="white" fill-opacity="0.08"/>
<path d="M731.166 279.999L1675 344.465V279.999V215.534L731.166 279.999Z" fill="url(#paint13_radial)"/>
<path d="M-221.109 465.157L-204.421 527.43L-187.739 589.697L707.251 283.147L-221.109 465.157Z" fill="white" fill-opacity="0.08"/>
<path d="M-221.109 465.157L-204.421 527.43L-187.739 589.697L707.251 283.147L-221.109 465.157Z" fill="url(#paint14_radial)"/>
<path d="M1659.11 94.8361L1642.43 32.5684L1625.74 -29.7041L730.753 276.851L1659.11 94.8361Z" fill="white" fill-opacity="0.08"/>
<path d="M1659.11 94.8361L1642.43 32.5684L1625.74 -29.7041L730.753 276.851L1659.11 94.8361Z" fill="url(#paint15_radial)"/>
<path d="M-141.151 702.166L-108.921 757.996L-76.6857 813.827L708.464 286.079L-141.151 702.166Z" fill="white" fill-opacity="0.08"/>
<path d="M-141.151 702.166L-108.921 757.996L-76.6857 813.827L708.464 286.079L-141.151 702.166Z" fill="url(#paint16_radial)"/>
<path d="M1579.16 -142.173L1546.92 -198.003L1514.69 -253.828L729.536 273.914L1579.16 -142.173Z" fill="white" fill-opacity="0.08"/>
<path d="M1579.16 -142.173L1546.92 -198.003L1514.69 -253.828L729.536 273.914L1579.16 -142.173Z" fill="url(#paint17_radial)"/>
<path d="M-2.5791 910.405L43.0056 955.99L88.5902 1001.57L710.395 288.6L-2.5791 910.405Z" fill="white" fill-opacity="0.08"/>
<path d="M-2.5791 910.405L43.0056 955.99L88.5902 1001.57L710.395 288.6L-2.5791 910.405Z" fill="url(#paint18_radial)"/>
<path d="M1440.58 -350.412L1395 -395.996L1349.41 -441.581L727.603 271.398L1440.58 -350.412Z" fill="white" fill-opacity="0.08"/>
<path d="M1440.58 -350.412L1395 -395.996L1349.41 -441.581L727.603 271.398L1440.58 -350.412Z" fill="url(#paint19_radial)"/>
<path d="M185.173 1075.68L241.003 1107.92L296.829 1140.15L712.916 290.534L185.173 1075.68Z" fill="white" fill-opacity="0.08"/>
<path d="M185.173 1075.68L241.003 1107.92L296.829 1140.15L712.916 290.534L185.173 1075.68Z" fill="url(#paint20_radial)"/>
<path d="M1252.83 -515.685L1197 -547.921L1141.17 -580.156L725.084 269.465L1252.83 -515.685Z" fill="white" fill-opacity="0.08"/>
<path d="M1252.83 -515.685L1197 -547.921L1141.17 -580.156L725.084 269.465L1252.83 -515.685Z" fill="url(#paint21_radial)"/>
<path d="M409.303 1186.74L471.571 1203.42L533.838 1220.11L715.853 291.748L409.303 1186.74Z" fill="white" fill-opacity="0.08"/>
<path d="M409.303 1186.74L471.571 1203.42L533.838 1220.11L715.853 291.748L409.303 1186.74Z" fill="url(#paint22_radial)"/>
<path d="M1028.7 -626.739L966.428 -643.427L904.161 -660.11L722.146 268.246L1028.7 -626.739Z" fill="white" fill-opacity="0.08"/>
<path d="M1028.7 -626.739L966.428 -643.427L904.161 -660.11L722.146 268.246L1028.7 -626.739Z" fill="url(#paint23_radial)"/>
<defs>
<radialGradient id="paint0_radial" cx="0" cy="0" r="1" gradientUnits="userSpaceOnUse" gradientTransform="translate(718.999 -204.083) rotate(90) scale(471.917 64.4656)">
<stop stop-color="#FF36FF" stop-opacity="0.19"/>
<stop offset="0.5" stop-color="#160150" stop-opacity="0"/>
<stop offset="1" stop-color="#FF36FF" stop-opacity="0.26"/>
</radialGradient>
<radialGradient id="paint1_radial" cx="0" cy="0" r="1" gradientUnits="userSpaceOnUse" gradientTransform="translate(718.999 764.081) rotate(90) scale(471.917 64.4656)">
<stop stop-color="#FF36FF" stop-opacity="0.19"/>
<stop offset="0.5" stop-color="#160150" stop-opacity="0"/>
<stop offset="1" stop-color="#FF36FF" stop-opacity="0.26"/>
</radialGradient>
<radialGradient id="paint2_radial" cx="0" cy="0" r="1" gradientUnits="userSpaceOnUse" gradientTransform="translate(562.578 -195.932) rotate(90) scale(464.178 153.275)">
<stop stop-color="#FF36FF" stop-opacity="0.19"/>
<stop offset="0.5" stop-color="#160150" stop-opacity="0"/>
<stop offset="1" stop-color="#FF36FF" stop-opacity="0.26"/>
</radialGradient>
<radialGradient id="paint3_radial" cx="0" cy="0" r="1" gradientUnits="userSpaceOnUse" gradientTransform="translate(875.421 755.928) rotate(90) scale(464.18 153.275)">
<stop stop-color="#FF36FF" stop-opacity="0.19"/>
<stop offset="0.5" stop-color="#160150" stop-opacity="0"/>
<stop offset="1" stop-color="#FF36FF" stop-opacity="0.26"/>
</radialGradient>
<radialGradient id="paint4_radial" cx="0" cy="0" r="1" gradientUnits="userSpaceOnUse" gradientTransform="translate(449.044 -155.346) rotate(90) scale(424.81 263.871)">
<stop stop-color="#FF36FF" stop-opacity="0.19"/>
<stop offset="0.5" stop-color="#160150" stop-opacity="0"/>
<stop offset="1" stop-color="#FF36FF" stop-opacity="0.26"/>
</radialGradient>
<radialGradient id="paint5_radial" cx="0" cy="0" r="1" gradientUnits="userSpaceOnUse" gradientTransform="translate(988.955 715.341) rotate(90) scale(424.808 263.871)">
<stop stop-color="#FF36FF" stop-opacity="0.19"/>
<stop offset="0.5" stop-color="#160150" stop-opacity="0"/>
<stop offset="1" stop-color="#FF36FF" stop-opacity="0.26"/>
</radialGradient>
<radialGradient id="paint6_radial" cx="0" cy="0" r="1" gradientUnits="userSpaceOnUse" gradientTransform="translate(353.908 -85.0914) rotate(90) scale(356.49 356.487)">
<stop stop-color="#FF36FF" stop-opacity="0.19"/>
<stop offset="0.5" stop-color="#160150" stop-opacity="0"/>
<stop offset="1" stop-color="#FF36FF" stop-opacity="0.26"/>
</radialGradient>
<radialGradient id="paint7_radial" cx="0" cy="0" r="1" gradientUnits="userSpaceOnUse" gradientTransform="translate(1084.09 645.087) rotate(90) scale(356.487)">
<stop stop-color="#FF36FF" stop-opacity="0.19"/>
<stop offset="0.5" stop-color="#160150" stop-opacity="0"/>
<stop offset="1" stop-color="#FF36FF" stop-opacity="0.26"/>
</radialGradient>
<radialGradient id="paint8_radial" cx="0" cy="0" r="1" gradientUnits="userSpaceOnUse" gradientTransform="translate(283.656 10.043) rotate(90) scale(263.871 424.808)">
<stop stop-color="#FF36FF" stop-opacity="0.19"/>
<stop offset="0.5" stop-color="#160150" stop-opacity="0"/>
<stop offset="1" stop-color="#FF36FF" stop-opacity="0.26"/>
</radialGradient>
<radialGradient id="paint9_radial" cx="0" cy="0" r="1" gradientUnits="userSpaceOnUse" gradientTransform="translate(1154.35 549.953) rotate(90) scale(263.874 424.81)">
<stop stop-color="#FF36FF" stop-opacity="0.19"/>
<stop offset="0.5" stop-color="#160150" stop-opacity="0"/>
<stop offset="1" stop-color="#FF36FF" stop-opacity="0.26"/>
</radialGradient>
<radialGradient id="paint10_radial" cx="0" cy="0" r="1" gradientUnits="userSpaceOnUse" gradientTransform="translate(243.071 123.574) rotate(90) scale(153.278 464.18)">
<stop stop-color="#FF36FF" stop-opacity="0.19"/>
<stop offset="0.5" stop-color="#160150" stop-opacity="0"/>
<stop offset="1" stop-color="#FF36FF" stop-opacity="0.26"/>
</radialGradient>
<radialGradient id="paint11_radial" cx="0" cy="0" r="1" gradientUnits="userSpaceOnUse" gradientTransform="translate(1194.93 436.422) rotate(90) scale(153.275 464.178)">
<stop stop-color="#FF36FF" stop-opacity="0.19"/>
<stop offset="0.5" stop-color="#160150" stop-opacity="0"/>
<stop offset="1" stop-color="#FF36FF" stop-opacity="0.26"/>
</radialGradient>
<radialGradient id="paint12_radial" cx="0" cy="0" r="1" gradientUnits="userSpaceOnUse" gradientTransform="translate(234.917 279.999) rotate(90) scale(64.4656 471.917)">
<stop stop-color="#FF36FF" stop-opacity="0.19"/>
<stop offset="0.5" stop-color="#160150" stop-opacity="0"/>
<stop offset="1" stop-color="#FF36FF" stop-opacity="0.26"/>
</radialGradient>
<radialGradient id="paint13_radial" cx="0" cy="0" r="1" gradientUnits="userSpaceOnUse" gradientTransform="translate(1203.08 279.999) rotate(90) scale(64.4656 471.917)">
<stop stop-color="#FF36FF" stop-opacity="0.19"/>
<stop offset="0.5" stop-color="#160150" stop-opacity="0"/>
<stop offset="1" stop-color="#FF36FF" stop-opacity="0.26"/>
</radialGradient>
<radialGradient id="paint14_radial" cx="0" cy="0" r="1" gradientUnits="userSpaceOnUse" gradientTransform="translate(243.071 436.422) rotate(90) scale(153.275 464.18)">
<stop stop-color="#FF36FF" stop-opacity="0.19"/>
<stop offset="0.5" stop-color="#160150" stop-opacity="0"/>
<stop offset="1" stop-color="#FF36FF" stop-opacity="0.26"/>
</radialGradient>
<radialGradient id="paint15_radial" cx="0" cy="0" r="1" gradientUnits="userSpaceOnUse" gradientTransform="translate(1194.93 123.574) rotate(90) scale(153.278 464.178)">
<stop stop-color="#FF36FF" stop-opacity="0.19"/>
<stop offset="0.5" stop-color="#160150" stop-opacity="0"/>
<stop offset="1" stop-color="#FF36FF" stop-opacity="0.26"/>
</radialGradient>
<radialGradient id="paint16_radial" cx="0" cy="0" r="1" gradientUnits="userSpaceOnUse" gradientTransform="translate(283.656 549.953) rotate(90) scale(263.874 424.808)">
<stop stop-color="#FF36FF" stop-opacity="0.19"/>
<stop offset="0.5" stop-color="#160150" stop-opacity="0"/>
<stop offset="1" stop-color="#FF36FF" stop-opacity="0.26"/>
</radialGradient>
<radialGradient id="paint17_radial" cx="0" cy="0" r="1" gradientUnits="userSpaceOnUse" gradientTransform="translate(1154.35 10.043) rotate(90) scale(263.871 424.81)">
<stop stop-color="#FF36FF" stop-opacity="0.19"/>
<stop offset="0.5" stop-color="#160150" stop-opacity="0"/>
<stop offset="1" stop-color="#FF36FF" stop-opacity="0.26"/>
</radialGradient>
<radialGradient id="paint18_radial" cx="0" cy="0" r="1" gradientUnits="userSpaceOnUse" gradientTransform="translate(353.908 645.087) rotate(90) scale(356.487)">
<stop stop-color="#FF36FF" stop-opacity="0.19"/>
<stop offset="0.5" stop-color="#160150" stop-opacity="0"/>
<stop offset="1" stop-color="#FF36FF" stop-opacity="0.26"/>
</radialGradient>
<radialGradient id="paint19_radial" cx="0" cy="0" r="1" gradientUnits="userSpaceOnUse" gradientTransform="translate(1084.09 -85.0914) rotate(90) scale(356.49 356.487)">
<stop stop-color="#FF36FF" stop-opacity="0.19"/>
<stop offset="0.5" stop-color="#160150" stop-opacity="0"/>
<stop offset="1" stop-color="#FF36FF" stop-opacity="0.26"/>
</radialGradient>
<radialGradient id="paint20_radial" cx="0" cy="0" r="1" gradientUnits="userSpaceOnUse" gradientTransform="translate(449.044 715.341) rotate(90) scale(424.808 263.871)">
<stop stop-color="#FF36FF" stop-opacity="0.19"/>
<stop offset="0.5" stop-color="#160150" stop-opacity="0"/>
<stop offset="1" stop-color="#FF36FF" stop-opacity="0.26"/>
</radialGradient>
<radialGradient id="paint21_radial" cx="0" cy="0" r="1" gradientUnits="userSpaceOnUse" gradientTransform="translate(988.955 -155.346) rotate(90) scale(424.81 263.871)">
<stop stop-color="#FF36FF" stop-opacity="0.19"/>
<stop offset="0.5" stop-color="#160150" stop-opacity="0"/>
<stop offset="1" stop-color="#FF36FF" stop-opacity="0.26"/>
</radialGradient>
<radialGradient id="paint22_radial" cx="0" cy="0" r="1" gradientUnits="userSpaceOnUse" gradientTransform="translate(562.578 755.928) rotate(90) scale(464.18 153.275)">
<stop stop-color="#FF36FF" stop-opacity="0.19"/>
<stop offset="0.5" stop-color="#160150" stop-opacity="0"/>
<stop offset="1" stop-color="#FF36FF" stop-opacity="0.26"/>
</radialGradient>
<radialGradient id="paint23_radial" cx="0" cy="0" r="1" gradientUnits="userSpaceOnUse" gradientTransform="translate(875.423 -195.932) rotate(90) scale(464.178 153.278)">
<stop stop-color="#FF36FF" stop-opacity="0.19"/>
<stop offset="0.5" stop-color="#160150" stop-opacity="0"/>
<stop offset="1" stop-color="#FF36FF" stop-opacity="0.26"/>
</radialGradient>
</defs>
</svg>
